<?xml version="1.0" standalone="no"?>
<!DOCTYPE svg PUBLIC "-//W3C//DTD SVG 20010904//EN"
 "http://www.w3.org/TR/2001/REC-SVG-20010904/DTD/svg10.dtd">
<svg version="1.0" xmlns="http://www.w3.org/2000/svg"
 width="501.000000pt" height="501.000000pt" viewBox="0 0 501.000000 501.000000"
 preserveAspectRatio="xMidYMid meet">
<metadata>
Created by potrace 1.11, written by Peter Selinger 2001-2013
</metadata>
<g transform="translate(0.000000,501.000000) scale(0.100000,-0.100000)"
fill="#000000" stroke="none">
<path d="M2290 5004 c-14 -2 -65 -9 -115 -15 -123 -14 -298 -54 -429 -96
-1090 -351 -1803 -1389 -1735 -2529 44 -743 406 -1416 1004 -1864 337 -252
750 -419 1178 -475 156 -20 478 -20 634 0 552 72 1062 323 1453 715 402 401
657 932 720 1495 13 116 13 434 0 550 -116 1045 -884 1915 -1905 2158 -198 47
-296 59 -545 62 -129 2 -246 2 -260 -1z m320 -1614 c22 -316 44 -588 48 -603
6 -26 13 -18 92 117 47 79 86 143 88 142 1 -2 -21 -67 -49 -145 -28 -78 -49
-144 -47 -146 2 -3 238 95 524 216 285 122 526 223 534 226 8 3 -167 -106
-390 -242 -223 -135 -416 -254 -430 -263 l-25 -16 55 -7 c30 -4 243 -20 474
-35 231 -16 406 -31 390 -35 -16 -4 -162 -15 -325 -24 -275 -16 -305 -16 -435
-1 -399 46 -803 47 -1189 1 -107 -13 -150 -12 -408 4 -158 10 -289 20 -292 22
-2 3 181 17 408 33 542 36 535 36 511 53 -10 8 -198 123 -416 255 -219 133
-396 243 -394 245 1 2 236 -96 521 -217 285 -121 520 -218 522 -216 2 2 -21
71 -50 155 -30 83 -53 151 -52 151 1 0 42 -68 91 -152 l89 -152 7 39 c3 22 26
307 50 634 25 346 46 582 50 565 4 -16 26 -288 48 -604z m385 -934 c407 -45
727 -112 1080 -227 170 -54 448 -159 441 -166 -2 -2 -75 14 -162 36 -618 155
-1142 227 -1724 238 -634 12 -1261 -57 -1965 -216 -93 -22 -171 -38 -172 -37
-5 5 188 78 332 126 416 140 838 224 1295 260 170 13 709 4 875 -14z"/>
</g>
</svg>
