<?xml version="1.0" standalone="no"?>
<!DOCTYPE svg PUBLIC "-//W3C//DTD SVG 1.1//EN" "http://www.w3.org/Graphics/SVG/1.1/DTD/svg11.dtd" >
<svg xmlns="http://www.w3.org/2000/svg" xmlns:xlink="http://www.w3.org/1999/xlink" version="1.1">
<metadata>
Created by FontForge 20161116 at Sat Jul 16 22:25:20 2016
 By Jimmy Warting
PROMINDER (c) Situjuh Nazara. 2016. All Rights Reserved
</metadata>
<defs>
<font id="PROMINDER" horiz-adv-x="1164" >
  <font-face 
    font-family="PROMINDER"
    font-weight="400"
    font-stretch="normal"
    units-per-em="2048"
    panose-1="2 0 5 0 0 0 0 0 0 0"
    ascent="1638"
    descent="-410"
    x-height="1564"
    cap-height="1564"
    bbox="-230 -399 2342 1969"
    underline-thickness="150"
    underline-position="-292"
    unicode-range="U+001D-F002"
  />
<missing-glyph horiz-adv-x="1719" 
d="M989 1564q-137 -36 -223 -130q-30 -34 -78 -106q-54 -83 -78 -113q-74 -87 -117 -124q-73 -60 -157 -60q-66 0 -111 33q-52 38 -63 103q-1 16 -1 34q0 57 29 109q38 70 110 83q18 2 33 2q24 0 44 -7q37 -16 37 -62q-9 13 -22 13q-12 0 -24 -10q-11 -11 -11 -23
q0 -32 35 -32h1q33 0 51 37q10 19 10 39q0 21 -10 40q-14 39 -50 57q-40 22 -98 22q-14 0 -28 -2q-121 -10 -193 -98v195h914zM75 995q70 -72 189 -72q17 0 35 1q96 9 229 140q35 37 100 108q57 63 81 84q59 56 120 56q34 0 67 -16q100 -46 201 -46q67 0 134 22
q133 39 249 147q-13 -182 -130 -334q-24 -31 -250 -263h-60q-44 0 -74 34l-97 -96h175q-214 -234 -250 -416q-9 -51 -9 -96q0 -71 26 -128q42 -90 150 -124h-218v768l42 21v37h-710v173zM335 760q85 0 120 -33q36 -36 36 -121v-610h-416v764h260zM553 764h41v-768h-41v768z
M1270 -4q224 52 374 184v-184h-374zM1644 196q-144 -80 -270 -97q-27 -2 -51 -2q-91 0 -140 42q-51 42 -51 117q0 28 9 60q29 133 170 316q70 86 98 128h169v-51h66v-513zM1451 822q111 182 111 391q0 49 -5 97q-17 144 -21 144q7 55 108 85v-717h-193zM746 1143
q-82 0 -136 -47q-47 -43 -57 -104q-5 -14 -5 -29q0 -41 25 -70q28 -39 82 -39q7 0 17 1q65 9 83 68q8 16 8 30q0 39 -41 67q-32 24 -32 52q0 5 1 12q8 34 55 46v13z" />
    <glyph glyph-name=".notdef" horiz-adv-x="1719" 
d="M989 1564q-137 -36 -223 -130q-30 -34 -78 -106q-54 -83 -78 -113q-74 -87 -117 -124q-73 -60 -157 -60q-66 0 -111 33q-52 38 -63 103q-1 16 -1 34q0 57 29 109q38 70 110 83q18 2 33 2q24 0 44 -7q37 -16 37 -62q-9 13 -22 13q-12 0 -24 -10q-11 -11 -11 -23
q0 -32 35 -32h1q33 0 51 37q10 19 10 39q0 21 -10 40q-14 39 -50 57q-40 22 -98 22q-14 0 -28 -2q-121 -10 -193 -98v195h914zM75 995q70 -72 189 -72q17 0 35 1q96 9 229 140q35 37 100 108q57 63 81 84q59 56 120 56q34 0 67 -16q100 -46 201 -46q67 0 134 22
q133 39 249 147q-13 -182 -130 -334q-24 -31 -250 -263h-60q-44 0 -74 34l-97 -96h175q-214 -234 -250 -416q-9 -51 -9 -96q0 -71 26 -128q42 -90 150 -124h-218v768l42 21v37h-710v173zM335 760q85 0 120 -33q36 -36 36 -121v-610h-416v764h260zM553 764h41v-768h-41v768z
M1270 -4q224 52 374 184v-184h-374zM1644 196q-144 -80 -270 -97q-27 -2 -51 -2q-91 0 -140 42q-51 42 -51 117q0 28 9 60q29 133 170 316q70 86 98 128h169v-51h66v-513zM1451 822q111 182 111 391q0 49 -5 97q-17 144 -21 144q7 55 108 85v-717h-193zM746 1143
q-82 0 -136 -47q-47 -43 -57 -104q-5 -14 -5 -29q0 -41 25 -70q28 -39 82 -39q7 0 17 1q65 9 83 68q8 16 8 30q0 39 -41 67q-32 24 -32 52q0 5 1 12q8 34 55 46v13z" />
    <glyph glyph-name=".null" horiz-adv-x="0" 
 />
    <glyph glyph-name=".null" horiz-adv-x="0" 
 />
    <glyph glyph-name="nonmarkingreturn" horiz-adv-x="508" 
 />
    <glyph glyph-name="space" unicode=" " horiz-adv-x="508" 
 />
    <glyph glyph-name="space" unicode="&#xa0;" horiz-adv-x="508" 
 />
    <glyph glyph-name="exclam" unicode="!" horiz-adv-x="653" 
d="M151 489l-37 693v382h382v-382l-37 -693h-308zM114 382h382v-382h-382v382z" />
    <glyph glyph-name="quotedbl" unicode="&#x22;" horiz-adv-x="873" 
d="M115 931l-75 633h344l-75 -633h-194zM536 931l-75 633h344l-75 -633h-194z" />
    <glyph glyph-name="numbersign" unicode="#" horiz-adv-x="1113" 
d="M866 874l-29 -162h138l-42 -230h-138l-88 -482h-241l88 482h-157l-88 -482h-241l88 482h-136l42 230h136l29 162h-136l42 230h136l88 482h241l-88 -482h157l88 482h241l-88 -482h139l-42 -230h-139zM596 712l29 162h-157l-29 -162h157z" />
    <glyph glyph-name="dollar" unicode="$" horiz-adv-x="1191" 
d="M730 1803v-230q166 -32 253 -136q92 -112 92 -303v-118h-347v118q0 42 -9 68q-8 26 -27 40q-18 14 -47 19q-26 5 -68 5t-67 -5q-30 -5 -47 -18q-19 -15 -28 -40q-9 -26 -9 -68q0 -46 22 -80q20 -31 61 -59q29 -20 75 -42q23 -10 53 -23l27 -12l26 -11q68 -29 106 -48
q140 -72 207 -170q72 -106 72 -260q0 -191 -92 -303q-87 -104 -253 -136v-208h-306v208q-166 32 -253 136q-92 112 -92 303v117h347v-117q0 -42 9 -68q8 -26 27 -40q18 -14 47 -19q26 -5 68 -5t67 5q30 5 48 18q18 15 27 40q9 26 9 68q0 43 -21 75q-20 32 -66 60
q-18 11 -41 22q-17 8 -40 18t-58 24l-29 12l-29 12q-68 28 -113 53q-129 71 -191 176q-61 104 -61 253q0 191 92 303q87 104 253 136v230h306z" />
    <glyph glyph-name="percent" unicode="%" horiz-adv-x="1914" 
d="M328 1201q0 -34 8 -55q7 -20 22 -32q25 -19 92 -19t93 19q15 12 22 32q7 21 7 55v22q0 33 -7 54t-22 32q-26 19 -93 19t-92 -19q-15 -11 -22 -32q-8 -21 -8 -54v-22zM1384 1575l-566 -1586h-276l565 1586h277zM1354 341q0 -33 7 -54t22 -32q25 -19 93 -19q67 0 92 19
q15 11 22 32t7 54v22q0 34 -7 55q-7 20 -22 32q-25 19 -92 19q-68 0 -93 -19q-15 -12 -22 -32q-7 -21 -7 -55v-22zM1877 342q0 -187 -109 -279q-102 -85 -292 -85q-191 0 -292 85q-110 92 -110 279v20q0 187 110 279q101 86 292 86q190 0 292 -86q109 -92 109 -279v-20z
M852 1202q0 -187 -110 -279q-101 -86 -292 -86q-190 0 -292 86q-109 92 -109 279v20q0 187 109 279q102 85 292 85q191 0 292 -85q110 -92 110 -279v-20z" />
    <glyph glyph-name="ampersand" unicode="&#x26;" horiz-adv-x="1531" 
d="M66 359q0 130 66 246q59 104 156 175q-95 108 -133 180q-50 95 -50 207q0 203 116 312q116 107 326 107t325 -107q116 -109 116 -312q0 -251 -218 -404q22 -17 52 -44q11 -11 26 -25l13 -14l14 -13q71 -71 110 -99q137 160 225 349l290 -144q-121 -222 -269 -397
q168 -143 260 -271l-279 -166q-62 102 -203 221q-233 -182 -462 -182q-94 0 -177 21q-88 23 -154 68q-71 49 -108 119q-42 76 -42 173zM749 358q-47 34 -129 113l-16 16l-16 15l-31 31q-36 33 -62 55q-37 -30 -62 -86q-23 -53 -23 -100q0 -58 40 -89q34 -26 84 -26
q99 0 215 71zM546 1284q-67 0 -92 -40q-21 -31 -21 -104q0 -47 40 -110q37 -58 73 -80q59 44 88 96q26 46 26 94q0 75 -21 106q-24 38 -93 38z" />
    <glyph glyph-name="quotesingle" unicode="'" horiz-adv-x="454" 
d="M115 931l-75 633h344l-75 -633h-194z" />
    <glyph glyph-name="parenleft" unicode="(" horiz-adv-x="677" 
d="M598 -22q-236 0 -362 106q-136 114 -136 346v704q0 232 136 346q126 106 362 106v-160q-42 0 -68 -4q-29 -6 -47 -19q-18 -14 -27 -40t-9 -68v-1026q0 -42 9 -68t27 -40q18 -13 47 -19q26 -4 68 -4v-160z" />
    <glyph glyph-name="parenright" unicode=")" horiz-adv-x="680" 
d="M40 138q42 0 68 4q29 6 47 19q18 14 27 40t9 68v1026q0 42 -9 68t-27 40q-18 13 -47 19q-26 4 -68 4v160q236 0 362 -106q136 -114 136 -346v-704q0 -232 -136 -346q-126 -106 -362 -106v160z" />
    <glyph glyph-name="asterisk" unicode="*" horiz-adv-x="821" 
d="M516 1564v-234l219 71l34 -104l37 -115l-219 -71l132 -181l-91 -66l-95 -69l-132 181l-132 -181l-96 69l-90 66l132 181l-219 71l37 115l34 104l219 -71v234h230z" />
    <glyph glyph-name="plus" unicode="+" horiz-adv-x="715" 
d="M189 622h-241v320h241v241h320v-241h240v-320h-240v-240h-320v240z" />
    <glyph glyph-name="comma" unicode="," horiz-adv-x="458" 
d="M6 382h382v-333l-191 -432h-191l95 383h-95v382z" />
    <glyph glyph-name="hyphen" unicode="-" horiz-adv-x="573" 
d="M-29 942h575v-320h-575v320z" />
    <glyph glyph-name="hyphen" unicode="&#xad;" horiz-adv-x="573" 
d="M-29 942h575v-320h-575v320z" />
    <glyph glyph-name="period" unicode="." horiz-adv-x="458" 
d="M5 382h382v-382h-382v382z" />
    <glyph glyph-name="slash" unicode="/" horiz-adv-x="672" 
d="M610 1575l-336 -1586h-277l336 1586h277z" />
    <glyph glyph-name="zero" unicode="0" horiz-adv-x="1278" 
d="M491 429q0 -42 9 -68q9 -25 28 -40q17 -13 47 -18q25 -5 67 -5t68 5q29 5 47 18q19 15 27 40q9 26 9 68v706q0 42 -9 68q-8 25 -27 40q-18 13 -47 18q-26 5 -68 5t-67 -5q-30 -5 -47 -18q-19 -15 -28 -40q-9 -26 -9 -68v-706zM1140 430q0 -232 -136 -346
q-126 -106 -362 -106t-362 106q-136 114 -136 346v704q0 232 136 346q126 106 362 106t362 -106q136 -114 136 -346v-704z" />
    <glyph glyph-name="one" unicode="1" horiz-adv-x="1113" 
d="M760 320h325v-320h-997v320h325v847q-122 -46 -275 -48h-50v320h38q89 0 160 25q82 28 134 87l12 13h328v-1244z" />
    <glyph glyph-name="two" unicode="2" horiz-adv-x="1234" 
d="M1121 320v-320h-997v296q0 161 101 293q72 92 224 200q21 15 60 42l15 10l15 11q16 11 29 20q66 46 104 80q49 44 74 86q27 47 27 97q0 42 -9 68q-8 25 -27 40q-18 13 -47 18q-26 5 -68 5t-67 -5q-30 -5 -47 -18q-19 -15 -28 -40q-9 -26 -9 -68v-119h-347v118
q0 232 136 346q126 106 362 106t363 -106q136 -114 136 -346q0 -167 -97 -305q-71 -104 -214 -210q-26 -19 -58 -42q-13 -9 -30 -20l-14 -10l-14 -10q-73 -50 -105 -74q-51 -39 -78 -70q-32 -38 -38 -73h648z" />
    <glyph glyph-name="three" unicode="3" horiz-adv-x="1230" 
d="M526 1260q-30 -7 -46 -24q-17 -16 -23 -46q-6 -28 -6 -76v-98h-347v96q0 245 128 362q122 112 370 112q247 0 370 -112q128 -117 128 -362q0 -100 -41 -190q-44 -97 -118 -140q74 -43 118 -140q41 -90 41 -190q0 -245 -128 -362q-123 -112 -370 -112t-370 111
q-128 117 -128 361v96h347v-96q0 -48 6 -76q6 -30 23 -47q16 -16 46 -23q28 -6 76 -6t76 6q30 7 46 23q16 17 23 47q6 28 6 76q0 47 -6 76q-7 34 -22 54q-17 21 -47 31q-30 11 -76 11h-80v320h80q46 0 76 10q30 11 47 32q15 20 22 54q6 29 6 76q0 48 -6 76q-7 30 -23 46
q-16 17 -46 24q-28 6 -76 6t-76 -6z" />
    <glyph glyph-name="four" unicode="4" horiz-adv-x="1210" 
d="M643 1029l-248 -480h248v480zM643 247h-578v266l593 1051h332v-1015h148v-302h-148v-247h-347v247z" />
    <glyph glyph-name="five" unicode="5" horiz-adv-x="1215" 
d="M503 1244l-19 -144q77 22 166 22q106 0 191 -31q84 -30 143 -89q60 -58 91 -142q32 -85 32 -190v-240q0 -232 -136 -346q-126 -106 -363 -106q-236 0 -362 106q-136 114 -136 346v117h347v-118q0 -42 9 -68q9 -25 28 -40q17 -13 47 -18q25 -5 67 -5t68 5q29 5 47 18
q19 15 28 40q9 26 9 68v242q0 41 -9 67t-28 40q-18 13 -47 19q-26 5 -68 5t-67 -5q-30 -6 -47 -19q-19 -14 -28 -40t-9 -67h-336v114l99 779h848v-320h-565z" />
    <glyph glyph-name="six" unicode="6" horiz-adv-x="1268" 
d="M491 429q0 -42 9 -68q9 -25 28 -40q18 -13 47 -18q26 -5 68 -5q41 0 67 5q29 5 47 18q19 15 28 40q9 26 9 68v104q0 41 -9 67t-28 40q-18 13 -47 19q-26 5 -68 5t-67 -5q-29 -6 -47 -19q-19 -14 -28 -40t-9 -67v-104zM491 953q88 31 193 31q106 0 191 -31q84 -30 144 -89
q59 -58 90 -142q32 -85 32 -190v-102q0 -232 -136 -346q-126 -106 -362 -106q-237 0 -363 106q-136 114 -136 346v704q0 232 136 346q126 106 363 106q236 0 362 -106q136 -114 136 -346v-118h-347v119q0 42 -9 68q-9 25 -28 40q-18 13 -47 18q-26 5 -67 5q-42 0 -68 -5
q-29 -5 -47 -18q-19 -15 -28 -40q-9 -26 -9 -68v-182z" />
    <glyph glyph-name="seven" unicode="7" horiz-adv-x="953" 
d="M501 1244h-455v320h861v-155l-406 -1409h-359z" />
    <glyph glyph-name="eight" unicode="8" horiz-adv-x="1261" 
d="M556 1260q-30 -7 -46 -24q-16 -16 -23 -46q-6 -28 -6 -76q0 -47 6 -76q7 -34 23 -54q16 -21 46 -32q30 -10 76 -10q47 0 77 10q29 11 46 32q16 20 23 54q6 29 6 76q0 48 -7 76q-6 30 -23 46q-16 17 -46 24q-27 6 -76 6q-48 0 -76 -6zM632 298q49 0 76 6q30 7 46 23
q17 17 23 47q7 28 7 76q0 47 -6 76q-7 34 -23 54q-17 21 -46 31q-30 11 -77 11q-46 0 -76 -11q-30 -10 -46 -31q-16 -20 -23 -54q-6 -29 -6 -76q0 -48 6 -76q7 -30 23 -47q16 -16 46 -23q28 -6 76 -6zM293 782q-74 43 -118 140q-41 90 -41 190q0 245 128 362
q123 112 370 112q248 0 371 -112q128 -117 128 -362q0 -100 -41 -190q-44 -97 -119 -140q75 -43 119 -140q41 -90 41 -190q0 -245 -128 -362q-123 -112 -371 -112q-247 0 -370 112q-128 117 -128 362q0 100 41 190q44 97 118 140z" />
    <glyph glyph-name="nine" unicode="9" horiz-adv-x="1263" 
d="M778 1135q0 42 -9 68q-9 25 -28 40q-17 13 -47 18q-25 5 -67 5t-68 -5q-29 -5 -47 -18q-18 -15 -27 -40q-9 -26 -9 -68v-104q0 -41 9 -67t27 -40q18 -13 48 -19q25 -5 67 -5t68 5q29 6 47 19q18 14 27 40t9 67v104zM778 611q-87 -31 -193 -31q-105 0 -190 31
q-85 30 -144 89q-60 58 -91 142q-31 85 -31 190v102q0 232 136 346q126 106 362 106t362 -106q136 -114 136 -346v-704q0 -232 -136 -346q-126 -106 -362 -106t-362 106q-136 114 -136 346v117h347v-118q0 -42 9 -68q9 -25 27 -40q18 -13 47 -18q26 -5 68 -5t67 5
q30 5 47 18q19 15 28 40q9 26 9 68v182z" />
    <glyph glyph-name="colon" unicode=":" horiz-adv-x="573" 
d="M76 382h382v-382h-382v382zM76 1369h382v-383h-382v383z" />
    <glyph glyph-name="semicolon" unicode=";" horiz-adv-x="574" 
d="M76 1369h383v-383h-383v383zM76 382h383v-333l-191 -432h-192l96 383h-96v382z" />
    <glyph glyph-name="semicolon" unicode="&#x37e;" horiz-adv-x="574" 
d="M76 1369h383v-383h-383v383zM76 382h383v-333l-191 -432h-192l96 383h-96v382z" />
    <glyph glyph-name="less" unicode="&#x3c;" horiz-adv-x="714" 
d="M748 989l-341 -196l341 -196v-340l-800 464v144l800 454v-330z" />
    <glyph glyph-name="equal" unicode="=" horiz-adv-x="847" 
d="M16 856v320h801v-320h-801zM16 410v320h801v-320h-801z" />
    <glyph glyph-name="greater" unicode="&#x3e;" horiz-adv-x="714" 
d="M-52 1319l800 -454v-144l-800 -464v340l341 196l-341 196v330z" />
    <glyph glyph-name="question" unicode="?" horiz-adv-x="1101" 
d="M354 789q21 15 61 42l15 10l15 10q16 12 29 21q66 46 104 80q49 44 73 86q28 47 28 97q0 42 -9 68q-9 25 -28 40q-17 13 -47 18q-25 5 -67 5t-68 -5q-29 -5 -47 -18q-19 -15 -27 -40q-9 -26 -9 -68v-119h-348v118q0 232 137 346q126 106 362 106t362 -106
q136 -114 136 -346q0 -171 -101 -313q-75 -104 -224 -213v-119h-347v300zM337 382h382v-382h-382v382z" />
    <glyph glyph-name="at" unicode="@" horiz-adv-x="1794" 
d="M69 782q0 164 63 313q61 144 172 256q111 111 256 172q149 63 313 63q214 0 374 -63q149 -59 249 -172q92 -106 138 -256q43 -140 43 -313v-350q-3 -221 -128 -310q-45 -32 -105 -45q-23 -5 -47 -7q-19 -2 -39 -2q-94 0 -162 49q-63 46 -90 122q-26 -73 -107 -122
q-82 -49 -179 -49q-142 0 -220 76q-85 83 -85 249v439q0 167 98 249q90 76 260 76q63 0 121 -33q49 -27 74 -62l38 70h125v-734q0 -64 28 -99q33 -39 99 -39t96 39q30 41 32 133v350q0 280 -131 433q-154 180 -482 180q-125 0 -239 -48q-110 -47 -194 -132
q-85 -85 -132 -195q-48 -113 -48 -238v-350q4 -263 161 -420q137 -138 378 -183q110 -21 231 -21q111 0 232 18q232 34 415 119v-191q-241 -92 -503 -120q-98 -10 -190 -10q-179 0 -333 39q-265 68 -412 244q-168 200 -170 525v350zM982 833q0 57 -27 77q-22 17 -82 17
t-82 -17q-27 -20 -27 -77v-441q0 -57 27 -77q22 -17 82 -17t82 17q27 20 27 77v441z" />
    <glyph glyph-name="A" unicode="A" horiz-adv-x="1152" 
d="M460 581h178l-89 470zM718 261h-338l-65 -261h-357l427 1564h329l426 -1564h-356z" />
    <glyph glyph-name="B" unicode="B" horiz-adv-x="1186" 
d="M1058 647q39 -87 39 -195q0 -106 -32 -191q-31 -83 -90 -142q-60 -58 -144 -89q-85 -30 -190 -30h-541v1564h502q105 0 191 -30q84 -31 143 -89q60 -59 91 -142q32 -85 32 -191q0 -93 -29 -172q-32 -85 -94 -143q81 -55 122 -150zM447 320h166q72 0 106 39q31 37 31 112
q0 74 -31 111q-34 40 -106 40h-166v-302zM447 942h128q72 0 105 40q32 36 32 111t-32 112q-33 39 -105 39h-128v-302z" />
    <glyph glyph-name="C" unicode="C" 
d="M426 429q0 -42 9 -68q9 -25 27 -40q18 -13 48 -18q25 -5 67 -5t67 5q30 5 48 18q18 15 27 40q9 26 9 68v118h347v-117q0 -232 -136 -346q-126 -106 -362 -106t-362 106q-136 114 -136 346v704q0 232 136 346q126 106 362 106t362 -106q136 -114 136 -346v-118h-347v119
q0 42 -9 68q-9 25 -27 40q-18 13 -48 18q-25 5 -67 5t-67 -5q-30 -5 -48 -18q-18 -15 -27 -40q-9 -26 -9 -68v-706z" />
    <glyph glyph-name="D" unicode="D" horiz-adv-x="1185" 
d="M100 1564h498q236 0 362 -106q136 -114 136 -346v-660q0 -232 -136 -346q-126 -106 -362 -106h-498v1564zM447 1244v-924h151q42 0 67 5q30 5 48 18q18 15 27 40q9 26 9 68v662q0 42 -9 68q-9 25 -27 40q-18 13 -48 18q-25 5 -67 5h-151z" />
    <glyph glyph-name="E" unicode="E" horiz-adv-x="1079" 
d="M447 1244v-302h515v-320h-515v-302h515v-320h-862v1564h862v-320h-515z" />
    <glyph glyph-name="F" unicode="F" horiz-adv-x="1018" 
d="M447 1244v-302h438v-320h-438v-622h-347v1564h861v-320h-514z" />
    <glyph glyph-name="G" unicode="G" 
d="M728 622h-151v320h498v-512q0 -232 -136 -346q-126 -106 -362 -106t-362 106q-136 114 -136 346v704q0 232 136 346q126 106 362 106t362 -106q136 -114 136 -346v-79h-347v80q0 42 -9 68q-9 25 -28 40q-17 13 -47 18q-25 5 -67 5t-67 -5q-30 -5 -48 -18q-18 -15 -27 -40
q-9 -26 -9 -68v-706q0 -42 9 -68q9 -25 27 -40q18 -13 48 -18q25 -5 67 -5t67 5q30 5 47 18q19 15 28 40q9 26 9 68v193z" />
    <glyph glyph-name="H" unicode="H" horiz-adv-x="1246" 
d="M448 622v-622h-348v1564h348v-622h302v622h347v-1564h-347v622h-302z" />
    <glyph glyph-name="I" unicode="I" horiz-adv-x="870" 
d="M753 1564v-320h-175v-924h175v-320h-697v320h175v924h-175v320h697z" />
    <glyph glyph-name="J" unicode="J" horiz-adv-x="825" 
d="M593 1244v-875q0 -75 -29 -143q-28 -67 -79 -118q-52 -51 -118 -79q-69 -29 -143 -29h-168v320h146q18 0 31 13t13 31v880h-175v320h697v-320h-175z" />
    <glyph glyph-name="K" unicode="K" horiz-adv-x="1198" 
d="M447 624v-624h-347v1564h347v-623l341 623h384l-427 -782l431 -782h-385z" />
    <glyph glyph-name="L" unicode="L" horiz-adv-x="1008" 
d="M447 320h515v-320h-862v1564h347v-1244z" />
    <glyph glyph-name="M" unicode="M" horiz-adv-x="1390" 
d="M671 1000l236 564h334v-1564h-347v753l-223 -534l-224 534v-753h-347v1564h334z" />
    <glyph glyph-name="N" unicode="N" horiz-adv-x="1246" 
d="M750 811v753h347v-1564h-334l-316 753v-753h-347v1564h334z" />
    <glyph glyph-name="O" unicode="O" 
d="M426 429q0 -42 9 -68q9 -25 27 -40q18 -13 48 -18q25 -5 67 -5t67 5q30 5 47 18q19 15 28 40q9 26 9 68v706q0 42 -9 68q-9 25 -28 40q-17 13 -47 18q-25 5 -67 5t-67 -5q-30 -5 -48 -18q-18 -15 -27 -40q-9 -26 -9 -68v-706zM1075 430q0 -232 -136 -346
q-126 -106 -362 -106t-362 106q-136 114 -136 346v704q0 232 136 346q126 106 362 106t362 -106q136 -114 136 -346v-704z" />
    <glyph glyph-name="P" unicode="P" horiz-adv-x="1171" 
d="M612 782q44 0 70 8q27 8 42 26q14 18 20 47q5 26 5 70v160q0 44 -5 70q-6 29 -20 47q-15 18 -42 26q-26 8 -70 8h-165v-462h165zM100 0v1564h540q222 0 340 -125q116 -123 116 -346v-160q0 -223 -116 -346q-118 -125 -340 -125h-193v-462h-347z" />
    <glyph glyph-name="Q" unicode="Q" 
d="M426 429q0 -42 9 -68q9 -25 27 -40q18 -13 47 -18q26 -5 68 -5t67 5q30 5 47 18q19 15 28 40q9 26 9 68v706q0 42 -9 68q-9 25 -28 40q-17 13 -47 18q-25 5 -67 5t-68 -5q-29 -5 -47 -18q-18 -15 -27 -40q-9 -26 -9 -68v-706zM592 -22h-15q-236 0 -362 106
q-136 114 -136 346v704q0 232 136 346q126 106 362 106t362 -106q136 -114 136 -346v-704q0 -232 -136 -346q-7 -6 -14 -11l150 -273h-385z" />
    <glyph glyph-name="R" unicode="R" horiz-adv-x="1204" 
d="M612 782q44 0 70 8q27 8 42 26q14 18 20 47q5 26 5 70v160q0 44 -5 70q-6 29 -20 47q-15 18 -42 26q-26 8 -70 8h-165v-462h165zM447 462v-462h-347v1564h540q222 0 340 -125q116 -123 116 -346v-160q0 -145 -50 -250q-51 -105 -149 -161l218 -522h-359l-194 462h-115z
" />
    <glyph glyph-name="S" unicode="S" horiz-adv-x="1165" 
d="M708 504q-21 32 -67 60q-18 11 -41 22q-17 8 -40 18q-22 10 -58 24l-29 12l-29 12q-68 28 -113 53q-129 71 -190 176q-62 104 -62 253q0 232 136 346q126 106 363 106q236 0 362 -106q136 -114 136 -346v-118h-347v118q0 42 -9 68t-27 40t-48 19q-25 5 -67 5t-68 -5
q-29 -5 -47 -18q-19 -15 -28 -40q-9 -26 -9 -68q0 -46 22 -80q20 -31 62 -59q29 -20 75 -42q22 -10 53 -23l26 -12l27 -11q67 -29 105 -48q141 -72 208 -170q72 -106 72 -260q0 -232 -136 -346q-126 -106 -362 -106q-237 0 -363 106q-136 114 -136 346v117h347v-117
q0 -42 9 -68t27 -40t48 -19q25 -5 68 -5q41 0 67 5q29 5 47 18q19 15 28 40q9 26 9 68q0 43 -21 75z" />
    <glyph glyph-name="T" unicode="T" horiz-adv-x="1064" 
d="M682 1244v-1244h-347v1244h-325v320h997v-320h-325z" />
    <glyph glyph-name="U" unicode="U" horiz-adv-x="1246" 
d="M750 1564h347v-1134q0 -106 -32 -191q-31 -83 -91 -142q-59 -58 -143 -89q-85 -30 -191 -30h-84q-105 0 -190 30q-84 31 -144 89q-59 59 -90 142q-32 85 -32 191v1134h347v-1135q0 -75 32 -104q31 -27 105 -27h29q74 0 104 27q33 29 33 104v1135z" />
    <glyph glyph-name="V" unicode="V" horiz-adv-x="1233" 
d="M659 922l160 642h357l-427 -1564h-329l-426 1564h356l161 -642l74 -409z" />
    <glyph glyph-name="W" unicode="W" horiz-adv-x="1761" 
d="M509 516l115 1048h478l116 -1048l115 1048h355l-212 -1564h-478l-135 1241l-135 -1241h-477l-212 1564h354z" />
    <glyph glyph-name="X" unicode="X" horiz-adv-x="1157" 
d="M577 1002l199 562h359l-298 -782l298 -782h-359l-199 562l-200 -562h-359l299 782l-299 782h359z" />
    <glyph glyph-name="Y" unicode="Y" horiz-adv-x="1166" 
d="M568 1051l240 513h362l-428 -896v-668h-347v668l-428 896h361z" />
    <glyph glyph-name="Z" unicode="Z" horiz-adv-x="1034" 
d="M481 1244h-425v320h861v-157l-425 -1087h425v-320h-861v157z" />
    <glyph glyph-name="bracketleft" unicode="[" horiz-adv-x="649" 
d="M574 -22h-499v1608h499v-160h-152v-1288h152v-160z" />
    <glyph glyph-name="backslash" unicode="\" horiz-adv-x="569" 
 />
    <glyph glyph-name="bracketright" unicode="]" horiz-adv-x="649" 
d="M75 138h152v1288h-152v160h499v-1608h-499v160z" />
    <glyph glyph-name="asciicircum" unicode="^" horiz-adv-x="855" 
d="M75 931l353 633l352 -633h-225l-127 228l-127 -228h-226z" />
    <glyph glyph-name="underscore" unicode="_" horiz-adv-x="715" 
d="M-52 -101h800v-230h-800v230z" />
    <glyph glyph-name="grave" unicode="`" horiz-adv-x="506" 
d="M431 1647h-181l-175 322h230z" />
    <glyph glyph-name="a" unicode="a" horiz-adv-x="1152" 
d="M460 581h178l-89 470zM718 261h-338l-65 -261h-357l427 1564h329l426 -1564h-356z" />
    <glyph glyph-name="b" unicode="b" horiz-adv-x="1186" 
d="M1058 647q39 -87 39 -195q0 -106 -32 -191q-31 -83 -90 -142q-60 -58 -144 -89q-85 -30 -190 -30h-541v1564h502q105 0 191 -30q84 -31 143 -89q60 -59 91 -142q32 -85 32 -191q0 -93 -29 -172q-32 -85 -94 -143q81 -55 122 -150zM447 320h166q72 0 106 39q31 37 31 112
q0 74 -31 111q-34 40 -106 40h-166v-302zM447 942h128q72 0 105 40q32 36 32 111t-32 112q-33 39 -105 39h-128v-302z" />
    <glyph glyph-name="c" unicode="c" 
d="M426 429q0 -42 9 -68q9 -25 27 -40q18 -13 48 -18q25 -5 67 -5t67 5q30 5 48 18q18 15 27 40q9 26 9 68v118h347v-117q0 -232 -136 -346q-126 -106 -362 -106t-362 106q-136 114 -136 346v704q0 232 136 346q126 106 362 106t362 -106q136 -114 136 -346v-118h-347v119
q0 42 -9 68q-9 25 -27 40q-18 13 -48 18q-25 5 -67 5t-67 -5q-30 -5 -48 -18q-18 -15 -27 -40q-9 -26 -9 -68v-706z" />
    <glyph glyph-name="d" unicode="d" horiz-adv-x="1185" 
d="M100 1564h498q236 0 362 -106q136 -114 136 -346v-660q0 -232 -136 -346q-126 -106 -362 -106h-498v1564zM447 1244v-924h151q42 0 67 5q30 5 48 18q18 15 27 40q9 26 9 68v662q0 42 -9 68q-9 25 -27 40q-18 13 -48 18q-25 5 -67 5h-151z" />
    <glyph glyph-name="e" unicode="e" horiz-adv-x="1079" 
d="M447 1244v-302h515v-320h-515v-302h515v-320h-862v1564h862v-320h-515z" />
    <glyph glyph-name="f" unicode="f" horiz-adv-x="1018" 
d="M447 1244v-302h438v-320h-438v-622h-347v1564h861v-320h-514z" />
    <glyph glyph-name="g" unicode="g" 
d="M728 622h-151v320h498v-512q0 -232 -136 -346q-126 -106 -362 -106t-362 106q-136 114 -136 346v704q0 232 136 346q126 106 362 106t362 -106q136 -114 136 -346v-79h-347v80q0 42 -9 68q-9 25 -28 40q-17 13 -47 18q-25 5 -67 5t-67 -5q-30 -5 -48 -18q-18 -15 -27 -40
q-9 -26 -9 -68v-706q0 -42 9 -68q9 -25 27 -40q18 -13 48 -18q25 -5 67 -5t67 5q30 5 47 18q19 15 28 40q9 26 9 68v193z" />
    <glyph glyph-name="h" unicode="h" horiz-adv-x="1246" 
d="M448 622v-622h-348v1564h348v-622h302v622h347v-1564h-347v622h-302z" />
    <glyph glyph-name="i" unicode="i" horiz-adv-x="870" 
d="M753 1564v-320h-175v-924h175v-320h-697v320h175v924h-175v320h697z" />
    <glyph glyph-name="j" unicode="j" horiz-adv-x="825" 
d="M593 1244v-875q0 -75 -29 -143q-28 -67 -79 -118q-52 -51 -118 -79q-69 -29 -143 -29h-168v320h146q18 0 31 13t13 31v880h-175v320h697v-320h-175z" />
    <glyph glyph-name="k" unicode="k" horiz-adv-x="1198" 
d="M447 624v-624h-347v1564h347v-623l341 623h384l-427 -782l431 -782h-385z" />
    <glyph glyph-name="l" unicode="l" horiz-adv-x="1008" 
d="M447 320h515v-320h-862v1564h347v-1244z" />
    <glyph glyph-name="m" unicode="m" horiz-adv-x="1390" 
d="M671 1000l236 564h334v-1564h-347v753l-223 -534l-224 534v-753h-347v1564h334z" />
    <glyph glyph-name="n" unicode="n" horiz-adv-x="1246" 
d="M750 811v753h347v-1564h-334l-316 753v-753h-347v1564h334z" />
    <glyph glyph-name="o" unicode="o" 
d="M426 429q0 -42 9 -68q9 -25 27 -40q18 -13 48 -18q25 -5 67 -5t67 5q30 5 47 18q19 15 28 40q9 26 9 68v706q0 42 -9 68q-9 25 -28 40q-17 13 -47 18q-25 5 -67 5t-67 -5q-30 -5 -48 -18q-18 -15 -27 -40q-9 -26 -9 -68v-706zM1075 430q0 -232 -136 -346
q-126 -106 -362 -106t-362 106q-136 114 -136 346v704q0 232 136 346q126 106 362 106t362 -106q136 -114 136 -346v-704z" />
    <glyph glyph-name="p" unicode="p" horiz-adv-x="1171" 
d="M612 782q44 0 70 8q27 8 42 26q14 18 20 47q5 26 5 70v160q0 44 -5 70q-6 29 -20 47q-15 18 -42 26q-26 8 -70 8h-165v-462h165zM100 0v1564h540q222 0 340 -125q116 -123 116 -346v-160q0 -223 -116 -346q-118 -125 -340 -125h-193v-462h-347z" />
    <glyph glyph-name="q" unicode="q" 
d="M426 429q0 -42 9 -68q9 -25 27 -40q18 -13 47 -18q26 -5 68 -5t67 5q30 5 47 18q19 15 28 40q9 26 9 68v706q0 42 -9 68q-9 25 -28 40q-17 13 -47 18q-25 5 -67 5t-68 -5q-29 -5 -47 -18q-18 -15 -27 -40q-9 -26 -9 -68v-706zM592 -22h-15q-236 0 -362 106
q-136 114 -136 346v704q0 232 136 346q126 106 362 106t362 -106q136 -114 136 -346v-704q0 -232 -136 -346q-7 -6 -14 -11l150 -273h-385z" />
    <glyph glyph-name="r" unicode="r" horiz-adv-x="1204" 
d="M612 782q44 0 70 8q27 8 42 26q14 18 20 47q5 26 5 70v160q0 44 -5 70q-6 29 -20 47q-15 18 -42 26q-26 8 -70 8h-165v-462h165zM447 462v-462h-347v1564h540q222 0 340 -125q116 -123 116 -346v-160q0 -145 -50 -250q-51 -105 -149 -161l218 -522h-359l-194 462h-115z
" />
    <glyph glyph-name="s" unicode="s" horiz-adv-x="1165" 
d="M708 504q-21 32 -67 60q-18 11 -41 22q-17 8 -40 18q-22 10 -58 24l-29 12l-29 12q-68 28 -113 53q-129 71 -190 176q-62 104 -62 253q0 232 136 346q126 106 363 106q236 0 362 -106q136 -114 136 -346v-118h-347v118q0 42 -9 68t-27 40t-48 19q-25 5 -67 5t-68 -5
q-29 -5 -47 -18q-19 -15 -28 -40q-9 -26 -9 -68q0 -46 22 -80q20 -31 62 -59q29 -20 75 -42q22 -10 53 -23l26 -12l27 -11q67 -29 105 -48q141 -72 208 -170q72 -106 72 -260q0 -232 -136 -346q-126 -106 -362 -106q-237 0 -363 106q-136 114 -136 346v117h347v-117
q0 -42 9 -68t27 -40t48 -19q25 -5 68 -5q41 0 67 5q29 5 47 18q19 15 28 40q9 26 9 68q0 43 -21 75z" />
    <glyph glyph-name="t" unicode="t" horiz-adv-x="1064" 
d="M682 1244v-1244h-347v1244h-325v320h997v-320h-325z" />
    <glyph glyph-name="u" unicode="u" horiz-adv-x="1246" 
d="M750 1564h347v-1134q0 -106 -32 -191q-31 -83 -91 -142q-59 -58 -143 -89q-85 -30 -191 -30h-84q-105 0 -190 30q-84 31 -144 89q-59 59 -90 142q-32 85 -32 191v1134h347v-1135q0 -75 32 -104q31 -27 105 -27h29q74 0 104 27q33 29 33 104v1135z" />
    <glyph glyph-name="v" unicode="v" horiz-adv-x="1233" 
d="M659 922l160 642h357l-427 -1564h-329l-426 1564h356l161 -642l74 -409z" />
    <glyph glyph-name="w" unicode="w" horiz-adv-x="1761" 
d="M509 516l115 1048h478l116 -1048l115 1048h355l-212 -1564h-478l-135 1241l-135 -1241h-477l-212 1564h354z" />
    <glyph glyph-name="x" unicode="x" horiz-adv-x="1157" 
d="M577 1002l199 562h359l-298 -782l298 -782h-359l-199 562l-200 -562h-359l299 782l-299 782h359z" />
    <glyph glyph-name="y" unicode="y" horiz-adv-x="1166" 
d="M568 1051l240 513h362l-428 -896v-668h-347v668l-428 896h361z" />
    <glyph glyph-name="z" unicode="z" horiz-adv-x="1034" 
d="M481 1244h-425v320h861v-157l-425 -1087h425v-320h-861v157z" />
    <glyph glyph-name="braceleft" unicode="{" horiz-adv-x="800" 
d="M227 1134q0 232 136 346q126 106 362 106v-160q-42 0 -68 -4q-29 -6 -47 -19q-18 -14 -27 -40t-9 -68v-141q0 -260 -171 -372q171 -112 171 -372v-141q0 -42 9 -68t27 -40q18 -13 47 -19q26 -4 68 -4v-160q-236 0 -362 106q-136 114 -136 346v141q0 42 -9 68
q-9 25 -28 39q-18 14 -47 19q-26 5 -68 5v160q42 0 68 5q29 5 47 19q19 14 28 39q9 26 9 68v141z" />
    <glyph glyph-name="bar" unicode="|" horiz-adv-x="457" 
d="M382 1803v-2020h-307v2020h307z" />
    <glyph glyph-name="braceright" unicode="}" horiz-adv-x="800" 
d="M573 993q0 -42 9 -68q9 -25 28 -39q18 -14 47 -19q26 -5 68 -5v-160q-42 0 -68 -5q-29 -5 -47 -19q-19 -14 -28 -39q-9 -26 -9 -68v-141q0 -232 -136 -346q-126 -106 -362 -106v160q42 0 68 4q29 6 47 19q18 14 27 40t9 68v141q0 260 171 372q-171 112 -171 372v141
q0 42 -9 68t-27 40q-18 13 -47 19q-26 4 -68 4v160q236 0 362 -106q136 -114 136 -346v-141z" />
    <glyph glyph-name="asciitilde" unicode="~" horiz-adv-x="950" 
d="M272 688q-25 -20 -25 -54h-172q0 144 75 222q70 74 195 74q37 0 75 -12q27 -8 66 -26l16 -7q9 -4 15 -6q17 -8 30 -12q33 -12 60 -12q46 0 72 21q24 20 24 54h172q0 -144 -74 -222q-71 -74 -195 -74q-37 0 -76 12q-26 8 -66 26l-15 7q-9 4 -16 6q-17 8 -29 12
q-33 12 -60 12q-47 0 -72 -21z" />
    <glyph glyph-name="exclamdown" unicode="&#xa1;" horiz-adv-x="653" 
d="M459 1075l37 -693v-382h-382v382l37 693h308zM496 1182h-382v382h382v-382z" />
    <glyph glyph-name="cent" unicode="&#xa2;" 
d="M730 -9v-208h-306v208q-128 24 -209 93q-136 114 -136 346v704q0 232 136 346q81 69 209 93v230h306v-230q128 -24 209 -93q136 -114 136 -346v-118h-347v119q0 42 -9 68q-9 25 -27 40q-18 13 -48 18q-25 5 -67 5t-67 -5q-30 -5 -48 -18q-18 -15 -27 -40q-9 -26 -9 -68
v-706q0 -42 9 -68q9 -25 27 -40q18 -13 48 -18q25 -5 67 -5t67 5q30 5 48 18q18 15 27 40q9 26 9 68v118h347v-117q0 -232 -136 -346q-81 -69 -209 -93z" />
    <glyph glyph-name="sterling" unicode="&#xa3;" horiz-adv-x="1231" 
d="M220 806q-3 8 -5 17l-8 32l-8 31q-40 157 -40 249q1 232 137 346q126 105 362 105t362 -106q136 -114 136 -346v-118h-347v119q0 42 -9 68q-9 25 -28 40q-17 13 -47 18q-25 5 -67 5t-68 -5q-29 -5 -47 -18q-19 -15 -27 -40q-9 -26 -9 -68q0 -71 22 -172q4 -18 10 -44
l6 -22l5 -22q10 -40 16 -69h417v-230h-388v-3q0 -124 -34 -253h595v-320h-1073v160q126 97 166 225q18 61 18 136q0 26 -2 55h-190v230h145z" />
    <glyph glyph-name="currency" unicode="&#xa4;" horiz-adv-x="1122" 
d="M75 459l134 133q-48 89 -48 190q0 112 58 207l-117 116l163 163l124 -125q81 39 172 39q101 0 189 -48l134 134l163 -163l-134 -133q48 -89 48 -190q0 -90 -39 -172l125 -124l-163 -163l-116 117q-95 -58 -207 -58q-101 0 -190 48l-134 -134zM561 918q-28 0 -53 -10
q-25 -11 -43 -30q-19 -18 -30 -43q-10 -25 -10 -53t10 -53q11 -25 30 -43q18 -19 43 -30q25 -10 53 -10q27 0 53 10q24 11 43 30q19 18 29 43q11 25 11 53t-11 53q-10 25 -29 43q-19 19 -43 30q-26 10 -53 10z" />
    <glyph glyph-name="yen" unicode="&#xa5;" horiz-adv-x="1353" 
d="M676 1051l240 513h362l-319 -667h266v-230h-375v-141h375v-230h-375v-296h-347v296h-375v230h375v141h-375v230h265l-318 667h361z" />
    <glyph glyph-name="brokenbar" unicode="&#xa6;" horiz-adv-x="457" 
d="M382 1058.64v-868.585h-307v868.585h307zM382 638.969v-868.585h-307v868.585h307z" />
    <glyph glyph-name="section" unicode="&#xa7;" horiz-adv-x="1178" 
d="M526 488q18 -9 41 -19l40 -15q18 -7 42 -15q32 15 55 45q21 28 31 63q7 25 7 49q0 10 -1 19q-4 34 -22 57q-20 27 -66 50q-18 10 -41 19q-17 7 -40 16l-39 13q-33 -14 -57 -43q-22 -28 -33 -63q-7 -25 -7 -49q0 -10 1 -19q4 -34 22 -57q21 -27 67 -51zM1054 171
q33 -72 33 -165q0 -196 -136 -292q-126 -90 -362 -90t-362 90q-136 96 -136 292v100h347v-100q0 -35 9 -57q8 -22 27 -34q31 -20 115 -20q83 0 115 20q18 12 27 33q9 22 9 57q0 39 -22 69q-20 26 -61 49q-29 17 -75 35q-23 9 -53 20l-27 10l-26 9q-67 25 -106 41
q-123 53 -196 142q-68 81 -84 181q-4 28 -4 56q0 67 25 132q36 94 116 162q-69 55 -103 128q-33 72 -33 165q0 196 136 293q126 89 362 89t362 -89q136 -97 136 -293v-99h-347v99q0 36 -8 58q-9 21 -28 34q-31 20 -115 20q-83 0 -114 -20q-19 -12 -28 -34t-9 -57
q0 -39 22 -68q20 -26 61 -50q29 -16 75 -35q23 -9 53 -20l27 -9l27 -10q67 -24 105 -41q124 -53 197 -141q68 -82 83 -182q4 -28 4 -56q0 -66 -25 -132q-36 -94 -115 -162q69 -55 102 -128z" />
    <glyph glyph-name="dieresis" unicode="&#xa8;" horiz-adv-x="685" 
d="M75 1933h226v-226h-226v226zM384 1933h226v-226h-226v226z" />
    <glyph glyph-name="copyright" unicode="&#xa9;" horiz-adv-x="1706" 
d="M735 572q0 -47 22 -64q18 -14 68 -14q49 0 68 14q22 17 22 64v71h206v-70q0 -138 -81 -206q-75 -63 -215 -63q-141 0 -215 63q-81 68 -81 206v418q0 138 81 206q74 63 215 63q140 0 215 -63q81 -68 81 -206v-70h-206v71q0 47 -22 64q-19 14 -68 14q-50 0 -68 -14
q-22 -17 -22 -64v-420zM825 1586q164 0 313 -63q145 -61 256 -172q111 -112 173 -256q63 -150 63 -314q0 -163 -63 -313q-62 -144 -173 -256q-111 -111 -256 -172q-149 -64 -313 -64t-314 64q-144 61 -255 172q-112 112 -173 256q-63 150 -63 313q0 164 63 314
q61 144 173 256q111 111 255 172q150 63 314 63zM825 1390q-124 0 -237 -48q-109 -46 -193 -130q-85 -85 -131 -194q-48 -113 -48 -237q0 -123 48 -236q46 -110 131 -194q84 -84 193 -130q113 -48 237 -48t237 48q109 46 193 130t130 194q48 113 48 236q0 124 -48 237
q-46 109 -130 194q-84 84 -193 130q-113 48 -237 48z" />
    <glyph glyph-name="ordfeminine" unicode="&#xaa;" horiz-adv-x="793" 
d="M308 942h124l-62 298zM487 739h-235l-45 -165h-249l297 990h230l296 -990h-248z" />
    <glyph glyph-name="guillemotleft" unicode="&#xab;" horiz-adv-x="1087" 
d="M578 341h-375l-198 452l198 452h375l-165 -452zM1082 341h-375l-198 452l198 452h375l-165 -452z" />
    <glyph glyph-name="logicalnot" unicode="&#xac;" horiz-adv-x="949" 
d="M75 897h799v-515h-230v285h-569v230z" />
    <glyph glyph-name="registered" unicode="&#xae;" horiz-adv-x="1760" 
d="M883 782q49 0 66 20q15 19 15 70v95q0 51 -15 69q-17 21 -66 21h-98v-275h98zM785 592v-275h-207v930h321q132 0 203 -75q68 -73 68 -205v-95q0 -87 -29 -149q-31 -62 -89 -96l130 -310h-214l-115 275h-68zM880 1586q164 0 313 -63q145 -61 256 -172q112 -112 173 -256
q63 -150 63 -314q0 -163 -63 -313q-61 -144 -173 -256q-111 -111 -256 -172q-149 -64 -313 -64t-313 64q-145 61 -256 172q-111 112 -173 256q-63 150 -63 313q0 164 63 314q62 144 173 256q111 111 256 172q149 63 313 63zM880 1390q-124 0 -237 -48q-109 -46 -193 -130
q-84 -85 -131 -194q-47 -113 -47 -237q0 -123 47 -236q47 -110 131 -194t193 -130q113 -48 237 -48t237 48q109 46 193 130q85 84 131 194q48 113 48 236q0 124 -48 237q-46 109 -131 194q-84 84 -193 130q-113 48 -237 48z" />
    <glyph glyph-name="macron" unicode="&#xaf;" horiz-adv-x="1010" 
d="M75 1707v226h860v-226h-860z" />
    <glyph glyph-name="degree" unicode="&#xb0;" horiz-adv-x="903" 
d="M329 1201q0 -34 8 -55q7 -20 22 -32q25 -19 92 -19t93 19q15 12 22 32q7 21 7 55v22q0 33 -7 54t-22 32q-26 19 -93 19t-92 -19q-15 -11 -22 -32q-8 -21 -8 -54v-22zM853 1202q0 -187 -110 -279q-101 -86 -292 -86q-190 0 -292 86q-109 92 -109 279v20q0 187 109 279
q102 85 292 85q191 0 292 -85q110 -92 110 -279v-20z" />
    <glyph glyph-name="plusminus" unicode="&#xb1;" horiz-adv-x="715" 
d="M189 622h-241v320h241v241h320v-241h240v-320h-240v-240h-320v240zM-52 0v320h801v-320h-801z" />
    <glyph glyph-name="acute" unicode="&#xb4;" horiz-adv-x="506" 
d="M201 1969h230l-175 -322h-181z" />
    <glyph glyph-name="mu" unicode="&#xb5;" horiz-adv-x="1246" 
d="M447 427q0 -73 32 -102q31 -27 105 -27h29q74 0 104 27q33 29 33 104v682h347v-681q0 -106 -32 -191q-31 -83 -91 -142q-59 -58 -143 -89q-85 -30 -191 -30h-84q-57 0 -109 9v-385h-347v1509h347v-684z" />
    <glyph glyph-name="paragraph" unicode="&#xb6;" horiz-adv-x="1391" 
d="M1316 1564v-1781h-307v1461h-192v-1461h-306v759q-213 6 -326 131q-110 122 -110 340v80q0 218 110 340q113 125 326 131h805z" />
    <glyph glyph-name="periodcentered" unicode="&#xb7;" horiz-adv-x="508" 
d="M5.09961 851.676h324.691v-324.691h-324.691v324.691z" />
    <glyph glyph-name="periodcentered" unicode="&#x2219;" horiz-adv-x="508" 
d="M5.09961 851.676h324.691v-324.691h-324.691v324.691z" />
    <glyph glyph-name="cedilla" unicode="&#xb8;" horiz-adv-x="433" 
d="M154 -163q0 32 -20 60q-16 22 -51 48l13 55h166l-13 -53q51 -22 81 -67q28 -42 28 -89q0 -91 -88 -136q-74 -38 -195 -38v140q34 0 56 21q23 21 23 59z" />
    <glyph glyph-name="ordmasculine" unicode="&#xba;" horiz-adv-x="883" 
d="M372 872q0 -23 4 -36q4 -9 11 -14q6 -4 18 -6q14 -3 39 -3q24 0 39 3q12 2 18 6q7 4 10 14q5 13 5 36v423q0 23 -5 36q-3 10 -10 14q-6 4 -18 6q-15 3 -39 3q-25 0 -39 -3q-12 -2 -18 -5q-7 -5 -11 -15q-4 -13 -4 -36v-423zM793 872q0 -147 -96 -221q-89 -70 -253 -70
t-254 70q-96 74 -96 221v423q0 147 96 221q90 70 254 70t253 -70q96 -74 96 -221v-423z" />
    <glyph glyph-name="guillemotright" unicode="&#xbb;" horiz-adv-x="1087" 
d="M170 793l-165 452h375l198 -452l-198 -452h-375zM674 793l-165 452h375l198 -452l-198 -452h-375z" />
    <glyph glyph-name="onequarter" unicode="&#xbc;" horiz-adv-x="1995" 
d="M546 818h211v-232h-700v232h211v457q-48 -17 -152 -18h-59v232h51q53 0 94 14q47 14 76 45l16 16h252v-746zM1486 1575l-566 -1586h-276l565 1586h277zM1575 540l-96 -171h96v171zM1575 148h-376v184l395 646h258v-609h96v-221h-96v-148h-277v148z" />
    <glyph glyph-name="onehalf" unicode="&#xbd;" horiz-adv-x="2011" 
d="M546 818h211v-232h-700v232h211v457q-48 -17 -152 -18h-59v232h51q53 0 94 14q47 14 76 45l16 16h252v-746zM1467 1575l-566 -1586h-276l565 1586h277zM1524 232h414v-232h-700v198q0 102 70 186q49 58 151 125q13 9 39 26l10 5l9 7q11 7 19 12q42 27 65 46q29 24 44 47
q15 24 15 49q0 23 -5 36q-3 10 -10 14q-6 4 -18 6q-15 3 -39 3q-25 0 -39 -3q-12 -2 -18 -5q-7 -5 -11 -15q-4 -13 -4 -36v-91h-278v91q0 147 96 221q90 70 254 70t254 -70q96 -74 96 -221q0 -106 -66 -193q-49 -65 -145 -131q-17 -12 -38 -26q-9 -5 -20 -12l-11 -7l-7 -5
q-47 -30 -68 -44q-31 -21 -46 -38q-9 -10 -13 -13z" />
    <glyph glyph-name="threequarters" unicode="&#xbe;" horiz-adv-x="2072" 
d="M381 1200h37q25 0 39 4q12 4 19 11q7 9 10 25q4 16 4 43t-4 42q-3 13 -9 19q-5 5 -16 7q-15 3 -43 3t-43 -3q-11 -2 -17 -8q-6 -5 -9 -18q-3 -15 -3 -42v-49h-278v48q0 154 90 230q87 74 260 74q171 0 259 -74q90 -76 90 -230q0 -64 -28 -121q-31 -64 -56 -77
q25 -13 56 -78q28 -57 28 -120q0 -155 -90 -231q-88 -74 -259 -74q-172 0 -260 73q-90 77 -90 230v48h278v-48q0 -27 3 -42q3 -13 7 -17q7 -6 19 -9q15 -3 43 -3t43 3q11 3 16 7q6 6 9 19q4 15 4 42t-4 43q-3 16 -10 25q-6 7 -19 11q-15 5 -39 5h-37v232zM1414 1575
l-566 -1586h-276l565 1586h277zM1513 540l-96 -171h96v171zM1513 148h-376v184l395 646h258v-609h96v-221h-96v-148h-277v148z" />
    <glyph glyph-name="questiondown" unicode="&#xbf;" horiz-adv-x="1101" 
d="M701 775q-21 -15 -61 -42l-15 -10l-15 -10q-16 -12 -29 -21q-66 -46 -104 -80q-49 -44 -73 -86q-28 -47 -28 -97q0 -42 9 -68q9 -25 28 -40q17 -13 47 -18q25 -5 67 -5t68 5q29 5 47 18q19 15 27 40q9 26 9 68v119h348v-118q0 -232 -137 -346q-126 -106 -362 -106
t-362 106q-136 114 -136 346q0 171 101 313q75 104 224 213v119h347v-300zM718 1182h-382v382h382v-382z" />
    <glyph glyph-name="Agrave" unicode="&#xc0;" horiz-adv-x="1152" 
d="M460 581h178l-89 470zM718 261h-338l-65 -261h-357l427 1564h329l426 -1564h-356zM668 1647h-181l-175 322h230z" />
    <glyph glyph-name="Aacute" unicode="&#xc1;" horiz-adv-x="1152" 
d="M460 581h178l-89 470zM718 261h-338l-65 -261h-357l427 1564h329l426 -1564h-356zM556 1969h230l-175 -322h-181z" />
    <glyph glyph-name="Acircumflex" unicode="&#xc2;" horiz-adv-x="1152" 
d="M460 581h178l-89 470zM718 261h-338l-65 -261h-357l427 1564h329l426 -1564h-356zM474 1647h-210l195 322h180l195 -322h-211l-74 154z" />
    <glyph glyph-name="Atilde" unicode="&#xc3;" horiz-adv-x="1152" 
d="M460 581h178l-89 470zM718 261h-338l-65 -261h-357l427 1564h329l426 -1564h-356zM382 1734q-20 -19 -20 -52h-140q0 138 61 212q58 71 159 71q30 0 62 -12q21 -7 54 -24l13 -7l12 -7q14 -7 24 -11q27 -11 49 -11q38 0 59 20q20 19 20 52h141q0 -138 -61 -212
q-58 -71 -159 -71q-31 0 -62 11q-22 8 -54 25l-13 6l-12 7q-14 7 -25 11q-27 12 -48 12q-39 0 -60 -20z" />
    <glyph glyph-name="Adieresis" unicode="&#xc4;" horiz-adv-x="1152" 
d="M460 581h178l-89 470zM718 261h-338l-65 -261h-357l427 1564h329l426 -1564h-356zM282 1933h226v-226h-226v226zM591 1933h226v-226h-226v226z" />
    <glyph glyph-name="Aring" unicode="&#xc5;" horiz-adv-x="1152" 
d="M460 581h178l-89 470zM550 1785q-35 0 -60 -24t-25 -57t25 -57t60 -24t60 24q24 24 24 57t-24 57q-25 24 -60 24zM730 1505l410 -1505h-356l-66 261h-338l-65 -261h-357l411 1505q-8 6 -15 13q-38 36 -59 83q-22 50 -22 103t22 102q21 48 59 84q39 37 88 57q51 20 108 20
q56 0 107 -20q50 -20 88 -57q38 -36 59 -84q22 -49 22 -102t-22 -103q-21 -47 -59 -83q-7 -7 -15 -13z" />
    <glyph glyph-name="AE" unicode="&#xc6;" horiz-adv-x="1688" 
d="M709 261h-329l-65 -261h-357l427 1564h1186v-320h-515v-302h515v-320h-515v-302h515v-320h-862v261zM657 1244l-197 -663h249v663h-52z" />
    <glyph glyph-name="Ccedilla" unicode="&#xc7;" 
d="M454 -14q-148 22 -239 98q-136 114 -136 346v704q0 232 136 346q126 106 362 106t362 -106q136 -114 136 -346v-118h-347v119q0 42 -9 68q-9 25 -27 40q-18 13 -48 18q-25 5 -67 5t-67 -5q-30 -5 -48 -18q-18 -15 -27 -40q-9 -26 -9 -68v-706q0 -42 9 -68q9 -25 27 -40
q18 -13 48 -18q25 -5 67 -5t67 5q30 5 48 18q18 15 27 40q9 26 9 68v118h347v-117q0 -232 -136 -346q-115 -97 -321 -105l-8 -32q51 -22 81 -67q28 -42 28 -89q0 -91 -88 -136q-74 -38 -195 -38v140q34 0 56 21q23 21 23 59q0 32 -20 60q-16 22 -51 48z" />
    <glyph glyph-name="Egrave" unicode="&#xc8;" horiz-adv-x="1079" 
d="M447 1244v-302h515v-320h-515v-302h515v-320h-862v1564h862v-320h-515zM650 1647h-181l-175 322h230z" />
    <glyph glyph-name="Eacute" unicode="&#xc9;" horiz-adv-x="1079" 
d="M447 1244v-302h515v-320h-515v-302h515v-320h-862v1564h862v-320h-515zM538 1969h230l-175 -322h-181z" />
    <glyph glyph-name="Ecircumflex" unicode="&#xca;" horiz-adv-x="1079" 
d="M447 1244v-302h515v-320h-515v-302h515v-320h-862v1564h862v-320h-515zM456 1647h-210l195 322h180l195 -322h-211l-74 154z" />
    <glyph glyph-name="Edieresis" unicode="&#xcb;" horiz-adv-x="1079" 
d="M447 1244v-302h515v-320h-515v-302h515v-320h-862v1564h862v-320h-515zM264 1933h226v-226h-226v226zM573 1933h226v-226h-226v226z" />
    <glyph glyph-name="Igrave" unicode="&#xcc;" horiz-adv-x="870" 
d="M753 1564v-320h-175v-924h175v-320h-697v320h175v924h-175v320h697zM523 1647h-181l-175 322h230z" />
    <glyph glyph-name="Iacute" unicode="&#xcd;" horiz-adv-x="870" 
d="M753 1564v-320h-175v-924h175v-320h-697v320h175v924h-175v320h697zM412 1969h230l-175 -322h-181z" />
    <glyph glyph-name="Icircumflex" unicode="&#xce;" horiz-adv-x="870" 
d="M753 1564v-320h-175v-924h175v-320h-697v320h175v924h-175v320h697zM330 1647h-210l195 322h180l195 -322h-211l-74 154z" />
    <glyph glyph-name="Idieresis" unicode="&#xcf;" horiz-adv-x="870" 
d="M753 1564v-320h-175v-924h175v-320h-697v320h175v924h-175v320h697zM137 1933h226v-226h-226v226zM446 1933h226v-226h-226v226z" />
    <glyph glyph-name="Eth" unicode="&#xd0;" horiz-adv-x="1185" 
d="M447 667v-347h151q42 0 67 5q30 5 48 18q18 15 27 40q9 26 9 68v662q0 42 -9 68q-9 25 -27 40q-18 13 -48 18q-25 5 -67 5h-151v-347h143v-230h-143zM100 897v667h498q236 0 362 -106q136 -114 136 -346v-660q0 -232 -136 -346q-126 -106 -362 -106h-498v667h-140v230
h140z" />
    <glyph glyph-name="Ntilde" unicode="&#xd1;" horiz-adv-x="1246" 
d="M750 811v753h347v-1564h-334l-316 753v-753h-347v1564h334zM432 1734q-20 -19 -20 -52h-140q0 138 61 212q58 71 159 71q30 0 62 -12q21 -7 54 -24l13 -7l12 -7q14 -7 24 -11q27 -11 49 -11q38 0 59 20q20 19 20 52h141q0 -138 -61 -212q-58 -71 -159 -71q-31 0 -62 11
q-22 8 -54 25l-13 6l-12 7q-14 7 -25 11q-27 12 -48 12q-39 0 -60 -20z" />
    <glyph glyph-name="Ograve" unicode="&#xd2;" 
d="M426 429q0 -42 9 -68q9 -25 27 -40q18 -13 48 -18q25 -5 67 -5t67 5q30 5 47 18q19 15 28 40q9 26 9 68v706q0 42 -9 68q-9 25 -28 40q-17 13 -47 18q-25 5 -67 5t-67 -5q-30 -5 -48 -18q-18 -15 -27 -40q-9 -26 -9 -68v-706zM1075 430q0 -232 -136 -346
q-126 -106 -362 -106t-362 106q-136 114 -136 346v704q0 232 136 346q126 106 362 106t362 -106q136 -114 136 -346v-704zM696 1647h-181l-175 322h230z" />
    <glyph glyph-name="Oacute" unicode="&#xd3;" 
d="M426 429q0 -42 9 -68q9 -25 27 -40q18 -13 48 -18q25 -5 67 -5t67 5q30 5 47 18q19 15 28 40q9 26 9 68v706q0 42 -9 68q-9 25 -28 40q-17 13 -47 18q-25 5 -67 5t-67 -5q-30 -5 -48 -18q-18 -15 -27 -40q-9 -26 -9 -68v-706zM1075 430q0 -232 -136 -346
q-126 -106 -362 -106t-362 106q-136 114 -136 346v704q0 232 136 346q126 106 362 106t362 -106q136 -114 136 -346v-704zM584 1969h230l-175 -322h-181z" />
    <glyph glyph-name="Ocircumflex" unicode="&#xd4;" 
d="M426 429q0 -42 9 -68q9 -25 27 -40q18 -13 48 -18q25 -5 67 -5t67 5q30 5 47 18q19 15 28 40q9 26 9 68v706q0 42 -9 68q-9 25 -28 40q-17 13 -47 18q-25 5 -67 5t-67 -5q-30 -5 -48 -18q-18 -15 -27 -40q-9 -26 -9 -68v-706zM1075 430q0 -232 -136 -346
q-126 -106 -362 -106t-362 106q-136 114 -136 346v704q0 232 136 346q126 106 362 106t362 -106q136 -114 136 -346v-704zM502 1647h-210l195 322h180l195 -322h-211l-74 154z" />
    <glyph glyph-name="Otilde" unicode="&#xd5;" 
d="M426 429q0 -42 9 -68q9 -25 27 -40q18 -13 48 -18q25 -5 67 -5t67 5q30 5 47 18q19 15 28 40q9 26 9 68v706q0 42 -9 68q-9 25 -28 40q-17 13 -47 18q-25 5 -67 5t-67 -5q-30 -5 -48 -18q-18 -15 -27 -40q-9 -26 -9 -68v-706zM1075 430q0 -232 -136 -346
q-126 -106 -362 -106t-362 106q-136 114 -136 346v704q0 232 136 346q126 106 362 106t362 -106q136 -114 136 -346v-704zM410 1734q-20 -19 -20 -52h-140q0 138 61 212q58 71 159 71q30 0 62 -12q21 -7 54 -24l13 -7l12 -7q14 -7 24 -11q27 -11 49 -11q38 0 59 20
q20 19 20 52h141q0 -138 -61 -212q-58 -71 -159 -71q-31 0 -62 11q-22 8 -54 25l-13 6l-12 7q-14 7 -25 11q-27 12 -48 12q-39 0 -60 -20z" />
    <glyph glyph-name="Odieresis" unicode="&#xd6;" 
d="M426 429q0 -42 9 -68q9 -25 27 -40q18 -13 48 -18q25 -5 67 -5t67 5q30 5 47 18q19 15 28 40q9 26 9 68v706q0 42 -9 68q-9 25 -28 40q-17 13 -47 18q-25 5 -67 5t-67 -5q-30 -5 -48 -18q-18 -15 -27 -40q-9 -26 -9 -68v-706zM1075 430q0 -232 -136 -346
q-126 -106 -362 -106t-362 106q-136 114 -136 346v704q0 232 136 346q126 106 362 106t362 -106q136 -114 136 -346v-704zM310 1933h226v-226h-226v226zM619 1933h226v-226h-226v226z" />
    <glyph glyph-name="multiply" unicode="&#xd7;" horiz-adv-x="715" 
d="M-16 580l201 202l-201 202l162 162l202 -201l202 201l162 -162l-201 -202l201 -202l-162 -162l-202 201l-202 -201z" />
    <glyph glyph-name="Oslash" unicode="&#xd8;" 
d="M898 1510q22 -14 41 -30q136 -114 136 -346v-704q0 -232 -136 -346q-126 -106 -362 -106q-101 0 -183 20l-66 -200h-177l89 267q-13 9 -25 19q-136 114 -136 346v704q0 232 136 346q126 106 362 106q90 0 164 -15l76 229h177zM426 625l212 637q-24 4 -61 4q-42 0 -67 -5
q-30 -5 -48 -18q-18 -15 -27 -40q-9 -26 -9 -68v-510zM728 1000l-231 -694q6 -2 13 -3q25 -5 67 -5t67 5q30 5 47 18q19 15 28 40q9 26 9 68v571z" />
    <glyph glyph-name="Ugrave" unicode="&#xd9;" horiz-adv-x="1246" 
d="M750 1564h347v-1134q0 -106 -32 -191q-31 -83 -91 -142q-59 -58 -143 -89q-85 -30 -191 -30h-84q-105 0 -190 30q-84 31 -144 89q-59 59 -90 142q-32 85 -32 191v1134h347v-1135q0 -75 32 -104q31 -27 105 -27h29q74 0 104 27q33 29 33 104v1135zM717 1647h-181l-175 322
h230z" />
    <glyph glyph-name="Uacute" unicode="&#xda;" horiz-adv-x="1246" 
d="M750 1564h347v-1134q0 -106 -32 -191q-31 -83 -91 -142q-59 -58 -143 -89q-85 -30 -191 -30h-84q-105 0 -190 30q-84 31 -144 89q-59 59 -90 142q-32 85 -32 191v1134h347v-1135q0 -75 32 -104q31 -27 105 -27h29q74 0 104 27q33 29 33 104v1135zM606 1969h230l-175 -322
h-181z" />
    <glyph glyph-name="Ucircumflex" unicode="&#xdb;" horiz-adv-x="1246" 
d="M750 1564h347v-1134q0 -106 -32 -191q-31 -83 -91 -142q-59 -58 -143 -89q-85 -30 -191 -30h-84q-105 0 -190 30q-84 31 -144 89q-59 59 -90 142q-32 85 -32 191v1134h347v-1135q0 -75 32 -104q31 -27 105 -27h29q74 0 104 27q33 29 33 104v1135zM524 1647h-210l195 322
h180l195 -322h-211l-74 154z" />
    <glyph glyph-name="Udieresis" unicode="&#xdc;" horiz-adv-x="1246" 
d="M750 1564h347v-1134q0 -106 -32 -191q-31 -83 -91 -142q-59 -58 -143 -89q-85 -30 -191 -30h-84q-105 0 -190 30q-84 31 -144 89q-59 59 -90 142q-32 85 -32 191v1134h347v-1135q0 -75 32 -104q31 -27 105 -27h29q74 0 104 27q33 29 33 104v1135zM331 1933h226v-226h-226
v226zM640 1933h226v-226h-226v226z" />
    <glyph glyph-name="Yacute" unicode="&#xdd;" horiz-adv-x="1166" 
d="M568 1051l240 513h362l-428 -896v-668h-347v668l-428 896h361zM576 1969h230l-175 -322h-181z" />
    <glyph glyph-name="Thorn" unicode="&#xde;" horiz-adv-x="1171" 
d="M612 582q44 0 70 8q27 8 42 26q14 18 20 47q5 26 5 70v160q0 44 -5 70q-6 29 -20 47q-15 18 -42 26q-26 8 -70 8h-165v-462h165zM447 -200h-347v1764h347v-200h193q222 0 340 -125q116 -123 116 -346v-160q0 -223 -116 -346q-118 -125 -340 -125h-193v-462z" />
    <glyph glyph-name="germandbls" unicode="&#xdf;" horiz-adv-x="1076" 
d="M1020 115q-51 -70 -144 -107q-85 -34 -193 -35h-7q-100 0 -199 27l39 272q49 -13 90 -13q26 0 49 5q74 17 74 82q0 35 -37 73q-13 14 -38 35l-11 9l-11 9q-13 11 -22 19q-55 49 -82 95q-37 63 -37 141q0 57 31 108q20 31 69 81l18 19q11 11 18 19q20 22 32 41
q32 47 32 98q0 74 -30 111q-33 40 -102 40q-133 0 -133 -151v-1093h-347v1112q0 224 130 341q125 111 350 111t349 -111q130 -117 130 -341q0 -81 -33 -147q-24 -50 -72 -97q-14 -14 -38 -36l-4 -4l-5 -4l-8 -8q-10 -9 -16 -15q-33 -33 -33 -58q0 -42 39 -84q13 -15 39 -38
q4 -3 11 -10l12 -10q13 -12 23 -21q56 -53 84 -106q39 -72 39 -167q0 -113 -56 -192z" />
    <glyph glyph-name="agrave" unicode="&#xe0;" horiz-adv-x="1152" 
d="M460 581h178l-89 470zM718 261h-338l-65 -261h-357l427 1564h329l426 -1564h-356zM668 1647h-181l-175 322h230z" />
    <glyph glyph-name="aacute" unicode="&#xe1;" horiz-adv-x="1152" 
d="M460 581h178l-89 470zM718 261h-338l-65 -261h-357l427 1564h329l426 -1564h-356zM556 1969h230l-175 -322h-181z" />
    <glyph glyph-name="acircumflex" unicode="&#xe2;" horiz-adv-x="1152" 
d="M460 581h178l-89 470zM718 261h-338l-65 -261h-357l427 1564h329l426 -1564h-356zM474 1647h-210l195 322h180l195 -322h-211l-74 154z" />
    <glyph glyph-name="atilde" unicode="&#xe3;" horiz-adv-x="1152" 
d="M460 581h178l-89 470zM718 261h-338l-65 -261h-357l427 1564h329l426 -1564h-356zM382 1734q-20 -19 -20 -52h-140q0 138 61 212q58 71 159 71q30 0 62 -12q21 -7 54 -24l13 -7l12 -7q14 -7 24 -11q27 -11 49 -11q38 0 59 20q20 19 20 52h141q0 -138 -61 -212
q-58 -71 -159 -71q-31 0 -62 11q-22 8 -54 25l-13 6l-12 7q-14 7 -25 11q-27 12 -48 12q-39 0 -60 -20z" />
    <glyph glyph-name="adieresis" unicode="&#xe4;" horiz-adv-x="1152" 
d="M460 581h178l-89 470zM718 261h-338l-65 -261h-357l427 1564h329l426 -1564h-356zM282 1933h226v-226h-226v226zM591 1933h226v-226h-226v226z" />
    <glyph glyph-name="aring" unicode="&#xe5;" horiz-adv-x="1152" 
d="M460 581h178l-89 470zM550 1785q-35 0 -60 -24t-25 -57t25 -57t60 -24t60 24q24 24 24 57t-24 57q-25 24 -60 24zM730 1505l410 -1505h-356l-66 261h-338l-65 -261h-357l411 1505q-8 6 -15 13q-38 36 -59 83q-22 50 -22 103t22 102q21 48 59 84q39 37 88 57q51 20 108 20
q56 0 107 -20q50 -20 88 -57q38 -36 59 -84q22 -49 22 -102t-22 -103q-21 -47 -59 -83q-7 -7 -15 -13z" />
    <glyph glyph-name="ae" unicode="&#xe6;" horiz-adv-x="1688" 
d="M709 261h-329l-65 -261h-357l427 1564h1186v-320h-515v-302h515v-320h-515v-302h515v-320h-862v261zM657 1244l-197 -663h249v663h-52z" />
    <glyph glyph-name="ccedilla" unicode="&#xe7;" 
d="M454 -14q-148 22 -239 98q-136 114 -136 346v704q0 232 136 346q126 106 362 106t362 -106q136 -114 136 -346v-118h-347v119q0 42 -9 68q-9 25 -27 40q-18 13 -48 18q-25 5 -67 5t-67 -5q-30 -5 -48 -18q-18 -15 -27 -40q-9 -26 -9 -68v-706q0 -42 9 -68q9 -25 27 -40
q18 -13 48 -18q25 -5 67 -5t67 5q30 5 48 18q18 15 27 40q9 26 9 68v118h347v-117q0 -232 -136 -346q-115 -97 -321 -105l-8 -32q51 -22 81 -67q28 -42 28 -89q0 -91 -88 -136q-74 -38 -195 -38v140q34 0 56 21q23 21 23 59q0 32 -20 60q-16 22 -51 48z" />
    <glyph glyph-name="egrave" unicode="&#xe8;" horiz-adv-x="1079" 
d="M447 1244v-302h515v-320h-515v-302h515v-320h-862v1564h862v-320h-515zM650 1647h-181l-175 322h230z" />
    <glyph glyph-name="eacute" unicode="&#xe9;" horiz-adv-x="1079" 
d="M447 1244v-302h515v-320h-515v-302h515v-320h-862v1564h862v-320h-515zM538 1969h230l-175 -322h-181z" />
    <glyph glyph-name="ecircumflex" unicode="&#xea;" horiz-adv-x="1079" 
d="M447 1244v-302h515v-320h-515v-302h515v-320h-862v1564h862v-320h-515zM456 1647h-210l195 322h180l195 -322h-211l-74 154z" />
    <glyph glyph-name="edieresis" unicode="&#xeb;" horiz-adv-x="1079" 
d="M447 1244v-302h515v-320h-515v-302h515v-320h-862v1564h862v-320h-515zM264 1933h226v-226h-226v226zM573 1933h226v-226h-226v226z" />
    <glyph glyph-name="igrave" unicode="&#xec;" horiz-adv-x="870" 
d="M753 1564v-320h-175v-924h175v-320h-697v320h175v924h-175v320h697zM523 1647h-181l-175 322h230z" />
    <glyph glyph-name="iacute" unicode="&#xed;" horiz-adv-x="870" 
d="M753 1564v-320h-175v-924h175v-320h-697v320h175v924h-175v320h697zM412 1969h230l-175 -322h-181z" />
    <glyph glyph-name="icircumflex" unicode="&#xee;" horiz-adv-x="870" 
d="M753 1564v-320h-175v-924h175v-320h-697v320h175v924h-175v320h697zM330 1647h-210l195 322h180l195 -322h-211l-74 154z" />
    <glyph glyph-name="idieresis" unicode="&#xef;" horiz-adv-x="870" 
d="M753 1564v-320h-175v-924h175v-320h-697v320h175v924h-175v320h697zM137 1933h226v-226h-226v226zM446 1933h226v-226h-226v226z" />
    <glyph glyph-name="eth" unicode="&#xf0;" horiz-adv-x="1185" 
d="M447 667v-347h151q42 0 67 5q30 5 48 18q18 15 27 40q9 26 9 68v662q0 42 -9 68q-9 25 -27 40q-18 13 -48 18q-25 5 -67 5h-151v-347h143v-230h-143zM100 897v667h498q236 0 362 -106q136 -114 136 -346v-660q0 -232 -136 -346q-126 -106 -362 -106h-498v667h-140v230
h140z" />
    <glyph glyph-name="ntilde" unicode="&#xf1;" horiz-adv-x="1246" 
d="M750 811v753h347v-1564h-334l-316 753v-753h-347v1564h334zM432 1734q-20 -19 -20 -52h-140q0 138 61 212q58 71 159 71q30 0 62 -12q21 -7 54 -24l13 -7l12 -7q14 -7 24 -11q27 -11 49 -11q38 0 59 20q20 19 20 52h141q0 -138 -61 -212q-58 -71 -159 -71q-31 0 -62 11
q-22 8 -54 25l-13 6l-12 7q-14 7 -25 11q-27 12 -48 12q-39 0 -60 -20z" />
    <glyph glyph-name="ograve" unicode="&#xf2;" 
d="M426 429q0 -42 9 -68q9 -25 27 -40q18 -13 48 -18q25 -5 67 -5t67 5q30 5 47 18q19 15 28 40q9 26 9 68v706q0 42 -9 68q-9 25 -28 40q-17 13 -47 18q-25 5 -67 5t-67 -5q-30 -5 -48 -18q-18 -15 -27 -40q-9 -26 -9 -68v-706zM1075 430q0 -232 -136 -346
q-126 -106 -362 -106t-362 106q-136 114 -136 346v704q0 232 136 346q126 106 362 106t362 -106q136 -114 136 -346v-704zM696 1647h-181l-175 322h230z" />
    <glyph glyph-name="oacute" unicode="&#xf3;" 
d="M426 429q0 -42 9 -68q9 -25 27 -40q18 -13 48 -18q25 -5 67 -5t67 5q30 5 47 18q19 15 28 40q9 26 9 68v706q0 42 -9 68q-9 25 -28 40q-17 13 -47 18q-25 5 -67 5t-67 -5q-30 -5 -48 -18q-18 -15 -27 -40q-9 -26 -9 -68v-706zM1075 430q0 -232 -136 -346
q-126 -106 -362 -106t-362 106q-136 114 -136 346v704q0 232 136 346q126 106 362 106t362 -106q136 -114 136 -346v-704zM584 1969h230l-175 -322h-181z" />
    <glyph glyph-name="ocircumflex" unicode="&#xf4;" 
d="M426 429q0 -42 9 -68q9 -25 27 -40q18 -13 48 -18q25 -5 67 -5t67 5q30 5 47 18q19 15 28 40q9 26 9 68v706q0 42 -9 68q-9 25 -28 40q-17 13 -47 18q-25 5 -67 5t-67 -5q-30 -5 -48 -18q-18 -15 -27 -40q-9 -26 -9 -68v-706zM1075 430q0 -232 -136 -346
q-126 -106 -362 -106t-362 106q-136 114 -136 346v704q0 232 136 346q126 106 362 106t362 -106q136 -114 136 -346v-704zM502 1647h-210l195 322h180l195 -322h-211l-74 154z" />
    <glyph glyph-name="otilde" unicode="&#xf5;" 
d="M426 429q0 -42 9 -68q9 -25 27 -40q18 -13 48 -18q25 -5 67 -5t67 5q30 5 47 18q19 15 28 40q9 26 9 68v706q0 42 -9 68q-9 25 -28 40q-17 13 -47 18q-25 5 -67 5t-67 -5q-30 -5 -48 -18q-18 -15 -27 -40q-9 -26 -9 -68v-706zM1075 430q0 -232 -136 -346
q-126 -106 -362 -106t-362 106q-136 114 -136 346v704q0 232 136 346q126 106 362 106t362 -106q136 -114 136 -346v-704zM410 1734q-20 -19 -20 -52h-140q0 138 61 212q58 71 159 71q30 0 62 -12q21 -7 54 -24l13 -7l12 -7q14 -7 24 -11q27 -11 49 -11q38 0 59 20
q20 19 20 52h141q0 -138 -61 -212q-58 -71 -159 -71q-31 0 -62 11q-22 8 -54 25l-13 6l-12 7q-14 7 -25 11q-27 12 -48 12q-39 0 -60 -20z" />
    <glyph glyph-name="odieresis" unicode="&#xf6;" 
d="M426 429q0 -42 9 -68q9 -25 27 -40q18 -13 48 -18q25 -5 67 -5t67 5q30 5 47 18q19 15 28 40q9 26 9 68v706q0 42 -9 68q-9 25 -28 40q-17 13 -47 18q-25 5 -67 5t-67 -5q-30 -5 -48 -18q-18 -15 -27 -40q-9 -26 -9 -68v-706zM1075 430q0 -232 -136 -346
q-126 -106 -362 -106t-362 106q-136 114 -136 346v704q0 232 136 346q126 106 362 106t362 -106q136 -114 136 -346v-704zM310 1933h226v-226h-226v226zM619 1933h226v-226h-226v226z" />
    <glyph glyph-name="divide" unicode="&#xf7;" horiz-adv-x="715" 
d="M-52 622v320h801v-320h-801zM157 480h382v-382h-382v382zM157 1467h382v-383h-382v383z" />
    <glyph glyph-name="oslash" unicode="&#xf8;" 
d="M898 1510q22 -14 41 -30q136 -114 136 -346v-704q0 -232 -136 -346q-126 -106 -362 -106q-101 0 -183 20l-66 -200h-177l89 267q-13 9 -25 19q-136 114 -136 346v704q0 232 136 346q126 106 362 106q90 0 164 -15l76 229h177zM426 625l212 637q-24 4 -61 4q-42 0 -67 -5
q-30 -5 -48 -18q-18 -15 -27 -40q-9 -26 -9 -68v-510zM728 1000l-231 -694q6 -2 13 -3q25 -5 67 -5t67 5q30 5 47 18q19 15 28 40q9 26 9 68v571z" />
    <glyph glyph-name="ugrave" unicode="&#xf9;" horiz-adv-x="1246" 
d="M750 1564h347v-1134q0 -106 -32 -191q-31 -83 -91 -142q-59 -58 -143 -89q-85 -30 -191 -30h-84q-105 0 -190 30q-84 31 -144 89q-59 59 -90 142q-32 85 -32 191v1134h347v-1135q0 -75 32 -104q31 -27 105 -27h29q74 0 104 27q33 29 33 104v1135zM717 1647h-181l-175 322
h230z" />
    <glyph glyph-name="uacute" unicode="&#xfa;" horiz-adv-x="1246" 
d="M750 1564h347v-1134q0 -106 -32 -191q-31 -83 -91 -142q-59 -58 -143 -89q-85 -30 -191 -30h-84q-105 0 -190 30q-84 31 -144 89q-59 59 -90 142q-32 85 -32 191v1134h347v-1135q0 -75 32 -104q31 -27 105 -27h29q74 0 104 27q33 29 33 104v1135zM606 1969h230l-175 -322
h-181z" />
    <glyph glyph-name="ucircumflex" unicode="&#xfb;" horiz-adv-x="1246" 
d="M750 1564h347v-1134q0 -106 -32 -191q-31 -83 -91 -142q-59 -58 -143 -89q-85 -30 -191 -30h-84q-105 0 -190 30q-84 31 -144 89q-59 59 -90 142q-32 85 -32 191v1134h347v-1135q0 -75 32 -104q31 -27 105 -27h29q74 0 104 27q33 29 33 104v1135zM524 1647h-210l195 322
h180l195 -322h-211l-74 154z" />
    <glyph glyph-name="udieresis" unicode="&#xfc;" horiz-adv-x="1246" 
d="M750 1564h347v-1134q0 -106 -32 -191q-31 -83 -91 -142q-59 -58 -143 -89q-85 -30 -191 -30h-84q-105 0 -190 30q-84 31 -144 89q-59 59 -90 142q-32 85 -32 191v1134h347v-1135q0 -75 32 -104q31 -27 105 -27h29q74 0 104 27q33 29 33 104v1135zM331 1933h226v-226h-226
v226zM640 1933h226v-226h-226v226z" />
    <glyph glyph-name="yacute" unicode="&#xfd;" horiz-adv-x="1166" 
d="M568 1051l240 513h362l-428 -896v-668h-347v668l-428 896h361zM576 1969h230l-175 -322h-181z" />
    <glyph glyph-name="thorn" unicode="&#xfe;" horiz-adv-x="1171" 
d="M612 582q44 0 70 8q27 8 42 26q14 18 20 47q5 26 5 70v160q0 44 -5 70q-6 29 -20 47q-15 18 -42 26q-26 8 -70 8h-165v-462h165zM447 -200h-347v1764h347v-200h193q222 0 340 -125q116 -123 116 -346v-160q0 -223 -116 -346q-118 -125 -340 -125h-193v-462z" />
    <glyph glyph-name="ydieresis" unicode="&#xff;" horiz-adv-x="1166" 
d="M568 1051l240 513h362l-428 -896v-668h-347v668l-428 896h361zM301 1933h226v-226h-226v226zM610 1933h226v-226h-226v226z" />
    <glyph glyph-name="dotlessi" unicode="&#x131;" horiz-adv-x="870" 
d="M753 1564v-320h-175v-924h175v-320h-697v320h175v924h-175v320h697z" />
    <glyph glyph-name="circumflex" unicode="&#x2c6;" horiz-adv-x="720" 
d="M285 1647h-210l195 322h180l195 -322h-211l-74 154z" />
    <glyph glyph-name="caron" unicode="&#x2c7;" horiz-adv-x="720" 
d="M360 1815l74 154h211l-195 -322h-180l-195 322h210z" />
    <glyph glyph-name="uni02C9" unicode="&#x2c9;" horiz-adv-x="685" 
d="M75 1933h535v-226h-535v226z" />
    <glyph glyph-name="breve" unicode="&#x2d8;" horiz-adv-x="703" 
d="M217 1968q3 -54 23 -82q32 -46 112 -46q79 0 111 46q20 28 23 82h142q-4 -140 -50 -214q-66 -106 -226 -106q-161 0 -227 106q-46 74 -50 214h142z" />
    <glyph glyph-name="dotaccent" unicode="&#x2d9;" horiz-adv-x="376" 
d="M75 1933h226v-226h-226v226z" />
    <glyph glyph-name="ring" unicode="&#x2da;" horiz-adv-x="703" 
d="M459 1947q50 -20 88 -57q38 -36 59 -84q22 -49 22 -102t-22 -103q-21 -47 -59 -83q-38 -37 -88 -57q-51 -20 -107 -20q-57 0 -108 20q-49 20 -88 57q-38 36 -59 83q-22 50 -22 103t22 102q21 48 59 84q39 37 88 57q51 20 108 20q56 0 107 -20zM352 1785q-35 0 -60 -24
t-25 -57t25 -57t60 -24t60 24q24 24 24 57t-24 57q-25 24 -60 24z" />
    <glyph glyph-name="ogonek" unicode="&#x2db;" horiz-adv-x="433" 
d="M303 -222q21 -21 55 -21v-140q-120 0 -194 38q-89 45 -89 136q0 52 34 95q29 37 80 65q41 23 91 37q42 12 78 12v-55q-43 -26 -59 -48q-20 -28 -20 -60q0 -38 24 -59z" />
    <glyph glyph-name="tilde" unicode="&#x2dc;" horiz-adv-x="804" 
d="M235 1734q-20 -19 -20 -52h-140q0 138 61 212q58 71 159 71q30 0 62 -12q21 -7 54 -24l13 -7l12 -7q14 -7 24 -11q27 -11 49 -11q38 0 59 20q20 19 20 52h141q0 -138 -61 -212q-58 -71 -159 -71q-31 0 -62 11q-22 8 -54 25l-13 6l-12 7q-14 7 -25 11q-27 12 -48 12
q-39 0 -60 -20z" />
    <glyph glyph-name="hungarumlaut" unicode="&#x2dd;" horiz-adv-x="1024" 
d="M23 1969h230l-175 -322h-181zM379 1969h230l-175 -322h-181z" />
    <glyph glyph-name="endash" unicode="&#x2013;" horiz-adv-x="1086" 
d="M-29 622v320h1115v-320h-1115z" />
    <glyph glyph-name="emdash" unicode="&#x2014;" horiz-adv-x="1947" 
d="M-29 622v320h1976v-320h-1976z" />
    <glyph glyph-name="quoteleft" unicode="&#x2018;" horiz-adv-x="458" 
d="M388 799h-382v333l191 432h191l-95 -383h95v-382z" />
    <glyph glyph-name="quoteright" unicode="&#x2019;" horiz-adv-x="458" 
d="M6 1564h382v-333l-191 -432h-191l95 383h-95v382z" />
    <glyph glyph-name="quotesinglbase" unicode="&#x201a;" horiz-adv-x="458" 
d="M6 382h382v-333l-191 -432h-191l95 383h-95v382z" />
    <glyph glyph-name="quotedblleft" unicode="&#x201c;" horiz-adv-x="993" 
d="M388 799h-382v333l191 432h191l-95 -383h95v-382zM923 799h-382v333l191 432h191l-95 -383h95v-382z" />
    <glyph glyph-name="quotedblright" unicode="&#x201d;" horiz-adv-x="993" 
d="M6 1564h382v-333l-191 -432h-191l95 383h-95v382zM541 1564h382v-333l-191 -432h-191l95 383h-95v382z" />
    <glyph glyph-name="quotedblbase" unicode="&#x201e;" horiz-adv-x="993" 
d="M6 382h382v-333l-191 -432h-191l95 383h-95v382zM541 382h382v-333l-191 -432h-191l95 383h-95v382z" />
    <glyph glyph-name="dagger" unicode="&#x2020;" horiz-adv-x="1064" 
d="M335 876h-325v320h325v368h347v-368h325v-320h-325v-1275h-347v1275z" />
    <glyph glyph-name="daggerdbl" unicode="&#x2021;" horiz-adv-x="1064" 
d="M335 876h-325v320h325v368h347v-368h325v-320h-325v-556h325v-320h-325v-399h-347v399h-325v320h325v556z" />
    <glyph glyph-name="bullet" unicode="&#x2022;" horiz-adv-x="695" 
d="M540 971.5q80 -79.5 80 -192.5t-80 -192.5t-193 -79.5t-192.5 79.5t-79.5 192.5t79.5 192.5t192.5 79.5t193 -79.5z" />
    <glyph glyph-name="ellipsis" unicode="&#x2026;" horiz-adv-x="2048" 
d="M5 382h382v-382h-382v382zM688 382h382v-382h-382v382zM1371 382h382v-382h-382v382z" />
    <glyph glyph-name="guilsinglleft" unicode="&#x2039;" horiz-adv-x="583" 
d="M578 341h-375l-198 452l198 452h375l-165 -452z" />
    <glyph glyph-name="guilsinglright" unicode="&#x203a;" horiz-adv-x="583" 
d="M170 793l-165 452h375l198 -452l-198 -452h-375z" />
    <glyph glyph-name="fraction" unicode="&#x2044;" horiz-adv-x="382" 
d="M612 1575l-566 -1586h-276l565 1586h277z" />
    <glyph glyph-name="fraction" unicode="&#x2215;" horiz-adv-x="382" 
d="M612 1575l-566 -1586h-276l565 1586h277z" />
    <glyph glyph-name="franc" unicode="&#x20a3;" horiz-adv-x="1278" 
d="M100 447v1117h861v-320h-514v-302h438v-320h-438v-175h178v-230h-178v-217h-347v217h-146v230h146z" />
    <glyph glyph-name="lira" unicode="&#x20a4;" horiz-adv-x="1231" 
d="M578 397q-7 -38 -17 -77h595v-320h-1073v160q126 97 166 225q2 6 3 12h-177v230h180l-17 88h-163v230h110q-26 116 -26 190q1 232 137 346q126 105 362 105t362 -106q136 -114 136 -346v-118h-347v119q0 42 -9 68q-9 25 -28 40q-17 13 -47 18q-25 5 -67 5t-68 -5
q-29 -5 -47 -18q-19 -15 -27 -40q-9 -26 -9 -68q0 -71 22 -172q2 -8 4 -18h450v-230h-406l12 -88h394v-230h-405z" />
    <glyph glyph-name="peseta" unicode="&#x20a7;" horiz-adv-x="2431" 
d="M561 782q39 0 63 8t38 26q12 18 18 47q4 26 4 70v160q0 44 -4 70q-6 29 -18 47q-14 18 -38 26t-63 8h-149v-462h149zM996 1031v-98q0 -223 -104 -346q-106 -125 -306 -125h-174v-462h-312v1564h486q200 0 306 -125q50 -59 76 -141h800q70 18 160 18q196 0 301 -88
q113 -95 113 -288v-98h-289v98q0 35 -7 56q-8 22 -23 34q-15 11 -40 16q-20 4 -55 4t-57 -4q-24 -5 -39 -15q-16 -13 -23 -34q-8 -21 -8 -56q0 -39 18 -67q17 -26 52 -49q24 -17 62 -35q19 -8 44 -19l22 -10l23 -9q55 -24 87 -40q117 -60 173 -142q60 -88 60 -216
q0 -193 -113 -288q-105 -88 -301 -88q-198 0 -302 88q-114 95 -114 288v97h289v-97q0 -35 8 -56q7 -22 22 -34q15 -11 40 -16q21 -4 57 -4q34 0 55 4q24 5 39 15q16 13 24 34q7 21 7 56q0 36 -17 63q-18 26 -56 50q-15 9 -34 18q-14 7 -33 15t-49 20l-24 10l-24 10
q-57 23 -94 44q-107 59 -158 146q-52 87 -52 211q0 49 7 91h-120v-1035h-288v1035h-115z" />
    <glyph glyph-name="Euro" unicode="&#x20ac;" horiz-adv-x="1060" 
d="M518 500v-71q0 -42 9 -68q9 -25 27 -40q18 -13 48 -18q25 -5 67 -5q31 0 83 2q67 2 134 6l56 -306q-157 -22 -273 -22q-236 0 -362 106q-136 114 -136 346v70h-141v230h141v126h-141v230h141v48q0 232 136 346q126 106 362 106q116 0 273 -22l-56 -306q-67 4 -134 6
q-52 2 -83 2q-42 0 -67 -5q-30 -5 -48 -18q-18 -15 -27 -40q-9 -26 -9 -68v-49h368v-230h-368v-126h368v-230h-368z" />
    <glyph glyph-name="uni2116" unicode="&#x2116;" horiz-adv-x="2129" 
d="M750 811v753h347v-1564h-334l-316 753v-753h-347v1564h334zM1618 872q0 -23 4 -36q4 -9 11 -14q6 -4 18 -6q14 -3 39 -3q24 0 39 3q12 2 18 6q7 4 10 14q5 13 5 36v423q0 23 -5 36q-3 10 -10 14q-6 4 -18 6q-15 3 -39 3q-25 0 -39 -3q-12 -2 -18 -5q-7 -5 -11 -15
q-4 -13 -4 -36v-423zM2039 872q0 -147 -96 -221q-89 -70 -253 -70t-254 70q-96 74 -96 221v423q0 147 96 221q90 70 254 70t253 -70q96 -74 96 -221v-423z" />
    <glyph glyph-name="trademark" unicode="&#x2122;" horiz-adv-x="1121" 
d="M309.158 872.854v-497.631h-156.154v497.631h-146.254v128.008h448.662v-128.008h-146.254zM487.813 775.247l106.202 225.614h150.305v-625.639h-156.154v301.219l-100.353 -213.613l-100.803 213.613v-301.219h-156.154v625.639h150.304z" />
    <glyph glyph-name="minus" unicode="&#x2212;" horiz-adv-x="715" 
d="M-52 622v320h801v-320h-801z" />
    <glyph glyph-name="approxequal" unicode="&#x2248;" horiz-adv-x="950" 
d="M272 836q-25 -20 -25 -54h-172q0 144 75 222q70 74 195 74q37 0 75 -12q27 -8 66 -26l16 -7q9 -4 15 -6q17 -8 30 -12q33 -12 60 -12q46 0 72 21q24 20 24 54h172q0 -144 -74 -222q-71 -74 -195 -74q-37 0 -76 12q-26 8 -66 26l-15 7q-9 4 -16 6q-17 8 -29 12
q-33 12 -60 12q-47 0 -72 -21zM272 540q-25 -20 -25 -54h-172q0 144 75 222q70 74 195 74q37 0 75 -12q27 -8 66 -26l16 -7q9 -4 15 -6q17 -8 30 -12q33 -12 60 -12q46 0 72 21q24 20 24 54h172q0 -144 -74 -222q-71 -74 -195 -74q-37 0 -76 12q-26 8 -66 26l-15 7
q-9 4 -16 6q-17 8 -29 12q-33 12 -60 12q-47 0 -72 -21z" />
    <glyph glyph-name="lessequal" unicode="&#x2264;" horiz-adv-x="714" 
d="M748 1212l-341 -196l341 -196v-340l-800 464v144l800 454v-330zM-52 0v320h801v-320h-801z" />
    <glyph glyph-name="greaterequal" unicode="&#x2265;" horiz-adv-x="714" 
d="M-52 1542l800 -454v-144l-800 -464v340l341 196l-341 196v330zM-52 0v320h801v-320h-801z" />
    <glyph glyph-name="uniF001" unicode="&#xf001;" horiz-adv-x="1888" 
d="M447 1244v-302h438v-320h-438v-622h-347v1564h861v-320h-514zM1771 1564v-320h-175v-924h175v-320h-697v320h175v924h-175v320h697z" />
    <glyph glyph-name="uniF001" unicode="&#xfb01;" horiz-adv-x="1888" 
d="M447 1244v-302h438v-320h-438v-622h-347v1564h861v-320h-514zM1771 1564v-320h-175v-924h175v-320h-697v320h175v924h-175v320h697z" />
    <glyph glyph-name="uniF002" unicode="&#xf002;" horiz-adv-x="2026" 
d="M447 1244v-302h438v-320h-438v-622h-347v1564h861v-320h-514zM1465 320h515v-320h-862v1564h347v-1244z" />
    <glyph glyph-name="uniF002" unicode="&#xfb02;" horiz-adv-x="2026" 
d="M447 1244v-302h438v-320h-438v-622h-347v1564h861v-320h-514zM1465 320h515v-320h-862v1564h347v-1244z" />
    </font>
</defs>
</svg>
